<svg width="454" height="142" viewBox="0 0 454 142" fill="none" xmlns="http://www.w3.org/2000/svg">
<g clip-path="url(#clip0_2005_72)">
<path d="M447.942 113.931V49.5886C447.942 47.7786 446.476 46.309 444.665 46.3088C444.619 46.3088 444.572 46.306 444.527 46.3012H266.991C266.54 46.3012 266.128 46.0671 265.892 45.6937C256.053 35.4056 242.264 29.0149 227.001 29.0149C211.738 29.015 197.947 35.4056 188.11 45.6937C187.874 46.0669 187.463 46.3012 187.012 46.3012H9.34075C7.52974 46.3013 6.0632 47.7704 6.0632 49.5823C6.06319 49.6135 6.06092 49.6444 6.05875 49.6751V113.931L6.0632 114.1C6.14705 115.759 7.46146 117.091 9.11336 117.202C9.18649 117.189 9.26107 117.182 9.33631 117.182H178.818C179.536 117.182 180.119 117.766 180.119 118.485C180.118 119.204 179.536 119.788 178.818 119.788H9.60626C9.51916 119.806 9.42888 119.816 9.33631 119.816C6.19062 119.816 3.62202 117.345 3.46465 114.234L3.45703 113.931V49.5823L3.46402 49.4487C3.46432 49.4457 3.4656 49.4428 3.46592 49.4398C3.54135 46.2544 6.14064 43.6958 9.34075 43.6957H186.42C196.712 33.0332 211.093 26.4095 227.001 26.4094C242.909 26.4094 257.288 33.0334 267.582 43.6957H444.665C444.722 43.6957 444.779 43.6999 444.834 43.7071C448.003 43.7968 450.544 46.3954 450.544 49.5886V113.931C450.544 117.183 447.91 119.816 444.665 119.816C444.573 119.816 444.482 119.806 444.395 119.788H276.078C275.36 119.788 274.777 119.204 274.777 118.485C274.777 117.766 275.359 117.182 276.078 117.182H444.665C444.741 117.182 444.815 117.19 444.887 117.202C446.593 117.088 447.942 115.668 447.942 113.931Z" fill="#E62024"/>
<path d="M46.1642 109.473L65.7998 78.294L69.4774 109.542L77.6634 108.224L72.8758 67.1139L71.3502 53.9213L64.2727 65.1712L46.1642 93.9881L28.0557 65.1712L20.9798 53.9213L19.4526 67.1139L14.665 108.224L22.8526 109.542L26.5302 78.294L46.1642 109.473Z" fill="white"/>
<path d="M139.372 82.4255C139.372 98.1195 126.607 110.896 110.926 110.896C95.2454 110.896 82.4795 98.1195 82.4795 82.4255C82.4795 66.733 95.2454 53.9546 110.926 53.9546C126.607 53.9546 139.372 66.733 139.372 82.4255ZM90.8066 82.4255C90.8066 93.5357 99.8268 102.564 110.928 102.564C122.028 102.564 131.048 93.5357 131.048 82.4255C131.048 71.3152 122.028 62.2873 110.928 62.2873C99.8268 62.2873 90.8066 71.3152 90.8066 82.4255Z" fill="white"/>
<path d="M154.888 74.4753L190.967 111.557V55.3799L182.642 56.7687V91.0724L146.562 53.9911V109.542L154.888 108.154V74.4753Z" fill="white"/>
<path d="M372.967 55.4132L364.642 56.802V109.577H395.17L397.945 101.245H372.967V55.4132Z" fill="white"/>
<path d="M418.988 86.5235L409.067 108.119L417.53 109.577L440.772 58.6779L433.211 55.3448L422.873 77.913L404.555 55.3448L398.174 60.7603L418.988 86.5235Z" fill="white"/>
<path d="M270.958 87.2172V108.049L262.633 109.438V55.2751H277.896C286.709 55.2751 293.854 62.427 293.854 71.247C293.854 80.0653 286.709 87.2188 277.896 87.2188L270.958 87.2172ZM270.958 80.2733H277.896C282.892 80.2733 286.916 76.245 286.916 71.2454C286.916 66.2457 282.892 62.2175 277.896 62.2175H270.958V80.2733Z" fill="white"/>
<path d="M255.638 82.3691C255.638 98.0321 242.897 110.784 227.248 110.784C211.598 110.784 198.857 98.0321 198.857 82.3691C198.857 66.7077 211.598 53.9546 227.248 53.9546C242.897 53.9562 255.638 66.7077 255.638 82.3691ZM207.168 82.3691C207.168 93.4574 216.17 102.467 227.249 102.467C238.328 102.467 247.33 93.4574 247.33 82.3691C247.33 71.2808 238.328 62.2708 227.249 62.2708C216.169 62.2724 207.168 71.2808 207.168 82.3691Z" fill="white"/>
<path d="M357.347 82.4255C357.347 98.1195 344.581 110.896 328.901 110.896C313.22 110.896 300.454 98.1195 300.454 82.4255C300.454 66.733 313.22 53.9546 328.901 53.9546C344.581 53.9546 357.347 66.733 357.347 82.4255ZM308.781 82.4255C308.781 93.5357 317.801 102.564 328.902 102.564C340.003 102.564 349.023 93.5357 349.023 82.4255C349.023 71.3152 340.003 62.2873 328.902 62.2873C317.8 62.2889 308.781 71.3152 308.781 82.4255Z" fill="white"/>
<path d="M241.208 32.9767L236.266 22.468L231.017 17.5239L216.195 18.7588L204.15 26.7962L200.444 38.2319L204.767 46.2678L210.944 48.1216L241.208 32.9767Z" fill="white"/>
<path d="M310.187 51.3881C309.966 51.185 309.744 50.9834 309.524 50.7818L300.994 42.7951L297.814 39.8271C297.418 39.2763 296.591 39.0938 296.775 38.1447C296.897 37.9003 296.561 37.778 296.775 37.5939C296.775 36.7369 296.867 35.7877 296.409 35.2068C295.829 34.7481 296.133 33.6466 295.889 32.9117C295.767 32.2086 295.705 31.5039 295.339 30.9849C294.91 30.0977 293.78 29.7612 292.954 29.1787C292.923 28.5359 292.649 28.0772 292.343 27.6804C291.12 26.4868 288.765 26.7313 287.176 27.2217C286.474 27.3741 285.984 28.1089 285.251 27.9851C278.922 22.2332 272.869 16.3273 266.694 10.4833C266.418 10.269 266.328 9.90237 266.234 9.56588C265.898 8.40248 266.6 7.51524 267.365 6.93434C268.741 6.0471 269.994 7.33272 271.401 7.30097C272.623 7.36287 273.664 6.68832 274.122 5.86299C274.154 5.67887 274.184 5.5884 274.274 5.49635C274.182 5.09955 274.396 4.91544 274.366 4.54721H274.396C274.396 3.93615 274.182 3.47586 274.06 2.9267C273.234 1.42681 271.339 0.509421 269.322 0.387208C267.855 0.142782 266.478 0.571321 265.194 0.99986C262.076 2.28548 260.271 4.70276 259.843 8.00727H259.783C259.721 10.6991 260.393 12.8418 261.832 14.4322C267.733 20.1238 273.756 25.7853 279.655 31.5071C280.021 32.242 279.258 32.7927 279.258 33.618H279.228C279.106 34.537 279.411 35.1481 279.533 35.9433C279.655 36.4639 280.115 36.8924 279.961 37.5035C279.961 38.2066 278.86 37.7177 278.83 38.3907C277.822 39.124 277.057 40.0731 276.049 40.8381C275.468 41.2048 275.192 40.5017 274.734 40.4413C271.126 43.7459 266.938 46.6536 262.322 49.2534C262.016 49.3454 261.68 49.62 261.404 49.3153C261.067 48.6423 261.19 47.6313 261.007 46.8678C260.793 46.1346 260.823 45.2473 260.151 44.8489C259.967 44.9712 259.937 45.2156 259.907 45.4918C259.907 45.6759 259.784 45.8282 259.724 45.9822C259.204 47.4821 258.378 48.7661 256.819 49.5311C256.575 49.593 256.329 49.4391 256.237 49.2248C255.963 46.471 255.565 43.8395 254.648 41.5762C253.089 37.4765 250.826 33.8355 247.677 30.8659C247.096 30.0707 246.088 29.5802 245.353 28.8771C245.109 28.5105 244.589 28.3867 244.527 27.8359C245.047 27.3153 245.718 26.8868 246.33 26.4583C248.013 24.8377 249.816 23.3379 250.244 20.8587C250.182 20.6444 250.122 20.4301 250.03 20.1857C249.754 19.7889 249.142 19.4826 248.501 19.635C247.951 19.7572 247.707 20.1238 247.431 20.492C246.392 22.6951 244.557 24.3473 242.478 25.8155C242.234 25.8774 241.928 25.9996 241.714 25.8456C240.766 25.1425 240.033 24.2553 239.024 23.6124C238.749 23.1537 238.26 22.8792 237.894 22.4506C236.639 20.8285 235.173 19.3905 234.042 17.678L233.89 17.3415C231.903 15.0163 230.404 12.2625 229.029 9.50875C228.571 8.52945 228.051 7.61206 226.828 7.21368C223.372 6.32644 219.888 7.36605 216.739 8.13107C209.921 10.5785 204.113 14.4957 199.832 19.0858C198.334 20.646 197.051 22.3602 195.919 24.1648C195.307 24.7774 195.124 25.6329 194.604 26.3075C194.33 27.3169 193.748 28.082 193.503 29.1216C193.044 30.0707 192.983 32.1197 193.534 33.0387C197.049 35.9464 200.139 39.1891 202.554 42.8602C202.738 43.0443 202.798 43.4411 203.196 43.2887C203.686 42.9523 204.052 42.4618 204.389 41.973C205.825 38.6367 207.904 35.7306 210.38 33.1292C215.364 27.8359 222.608 22.5427 231.354 21.411C232.21 21.4412 233.127 21.1666 233.891 21.5031C234.075 21.6872 234.288 21.8999 234.135 22.176C232.393 22.4506 230.62 22.6649 228.999 23.2458V23.368C230.498 24.8679 231.964 26.3678 233.555 27.774L233.951 27.9582C235.48 27.774 236.919 27.3455 238.293 26.7963H238.814C239.058 27.0106 239.364 27.1011 239.426 27.4074C239.334 27.5296 239.304 27.6836 239.181 27.774C237.286 28.8454 235.146 29.458 232.975 29.8866C228.084 30.804 223.406 32.334 218.85 33.9561C212.674 36.3416 207.752 39.862 204.114 44.2379C202.617 46.0441 201.731 48.2154 201.149 50.6945H201.119C201.087 50.9294 201.063 51.1628 201.046 51.3929H283.664C283.905 51.058 284.325 50.8612 284.552 50.5104C285.316 49.7756 286.233 49.0423 286.753 48.2455C286.599 47.7551 287.057 47.6027 287.211 47.2662C288.22 46.3171 289.136 45.2156 290.787 44.787C291.582 44.5426 292.438 43.1348 293.294 44.2363C295.805 46.6917 298.466 49.0185 301.078 51.3913H310.187V51.3881Z" fill="#00C0F3"/>
<path d="M181.418 51.3881C181.112 51.1977 180.807 51.0056 180.506 50.812L180.048 50.658C179.16 51.6992 178.427 50.1692 177.632 49.9248C177.082 49.6486 176.624 48.8836 175.829 49.1899C175.401 49.0978 175.401 48.6693 175.127 48.4868C174.515 47.3853 173.536 46.5901 172.896 45.5187C172.804 44.5394 172.498 43.6221 172.681 42.5507H172.712C172.65 42.1222 172.834 41.5413 172.559 41.2651C172.253 40.9286 171.643 40.9889 171.183 41.0508C168.676 41.4476 167.545 43.3459 167.055 45.4267H167.025L166.993 45.9473H166.963L166.931 46.8345H166.869C166.961 47.0488 166.777 47.1091 166.655 47.2012C163.842 48.3328 160.938 49.5867 158.369 51.0866C158.217 51.1866 158.065 51.285 157.911 51.3866L181.418 51.3881Z" fill="#00C0F3"/>
<path d="M301.073 51.3882C302.692 52.8579 304.292 54.3451 305.826 55.891C309.098 58.7051 312.123 61.6446 315.243 64.5808C315.793 64.9173 316.099 65.8046 317.047 65.4681C318.79 64.765 320.013 63.6317 320.411 61.9191H320.441C320.625 60.97 319.921 60.6954 319.524 60.1447C316.383 57.2576 313.321 54.2642 310.19 51.3882H301.073Z" fill="#00C0F3"/>
<path d="M157.915 51.3882C154.391 53.7023 150.507 56.3465 149.629 60.451H149.597L149.567 61.0621H149.505C149.535 61.6747 149.779 62.2858 149.597 62.8984C149.567 62.9603 149.629 63.0825 149.505 63.0825C149.627 63.3571 149.321 63.4809 149.473 63.7254C149.443 65.011 151.278 64.9189 151.522 66.0204C152.194 66.6632 153.235 66.1442 153.967 65.8982C158.462 63.2667 163.446 61.4303 168.827 60.7272C169.835 60.6351 171.058 60.5129 172.036 60.8192C172.77 61.5827 173.993 61.981 174.666 62.808C174.635 63.5111 174.451 64.0936 174.269 64.6745C174.269 64.8586 174.147 65.011 174.117 65.1951C174.055 65.4395 174.147 65.6236 174.331 65.7458C181.27 70.0296 189.372 72.4168 197.688 73.9151C203.467 74.9547 209.52 75.261 215.604 75.5673L215.91 75.7213L215.818 75.8736C214.961 76.1482 214.015 76.2101 213.188 76.5165C212.982 81.5431 211.799 91.6312 211.135 93.9342C214.75 99.0513 220.313 102.392 227.052 102.392C231.787 102.392 236.138 100.742 239.561 97.9863L239.541 97.9672C243.363 92.0613 251.005 77.9084 252.26 69.7249C252.322 69.4186 252.382 69.0821 252.688 68.9916L258.1 67.4616C268.067 64.4317 277.238 59.2305 283.903 52.9278C283.935 52.4992 283.629 52.3468 283.475 52.0088C283.466 51.7485 283.54 51.5533 283.657 51.3914H201.039C200.729 55.2688 202.183 58.2226 205.27 59.8114C206.371 60.4224 207.654 60.5446 208.908 60.8208C209.122 61.1255 209.428 61.3716 209.398 61.8303C209.244 61.8906 209.062 61.9826 208.878 61.8906C199.094 59.9431 189.593 56.4624 181.418 51.3898H157.915V51.3882Z" fill="#00C0F3"/>
<path d="M272.408 3.84248C272.56 4.17897 272.56 4.54561 272.56 4.97414C272.285 5.46458 271.551 5.61695 270.941 5.5249C269.534 4.51545 267.333 4.48529 265.866 5.43284C265.5 5.89154 264.826 6.19786 264.704 6.84067C264.612 6.99304 264.459 7.0851 264.49 7.36127C264.428 7.51364 264.306 7.63585 264.306 7.81996C264.122 8.55483 264.092 9.96266 264.612 10.5737C264.796 11.0943 265.254 11.3689 265.468 11.8593C266.569 13.2053 267.913 14.3068 269.23 15.5003L271.859 17.9795C272.501 18.7128 273.296 19.4477 274.06 20.1206C277.087 23.1506 280.327 25.9964 283.354 29.0549C283.538 29.6675 282.498 29.6056 282.1 29.912C281.856 30.0643 281.58 30.1865 281.306 30.1262C280.541 29.6374 279.961 28.9644 279.319 28.3819C274.122 23.2712 268.679 18.4065 263.451 13.3576C262.32 12.3482 261.832 10.9102 261.618 9.25795L261.586 8.06439H261.618L261.648 7.57395H261.678C262.26 5.09477 263.665 3.04572 266.448 2.31085C268.617 1.91564 271.093 2.37434 272.408 3.84248Z" fill="white" stroke="white" stroke-width="0.582928" stroke-miterlimit="2" stroke-linecap="square"/>
<path d="M220.099 10.1151C221.718 14.0021 224.103 17.3669 226.61 20.6413C226.733 20.7333 226.641 20.9777 226.672 21.1619C224.99 21.8047 223.217 22.3856 221.566 23.1506C218.907 24.4061 216.675 25.9044 214.442 27.4646C213.556 27.4344 213.434 26.5472 212.914 26.0869C210.591 23.2411 207.899 20.6095 205.272 17.9796C205.24 17.7653 205.18 17.6732 205.18 17.4288C206.769 15.6845 209.063 14.4608 211.203 13.1148C213.68 11.707 216.369 10.4531 219.213 9.68812C219.669 9.56432 219.945 9.81033 220.099 10.1151Z" fill="black"/>
<path d="M291.547 29.2088C291.883 29.6056 291.823 30.3405 292.037 30.7992C292.557 31.0738 293.321 30.9833 293.78 31.4103C294.422 31.9309 294.482 32.7879 294.636 33.645C294.422 33.8291 294.758 33.9196 294.636 34.1656V34.7164H294.604C294.512 34.8687 294.636 35.1132 294.482 35.2052C294.91 35.848 295.186 36.5527 295.064 37.5622H295.032C294.849 39.5208 293.504 40.5905 291.793 41.4476C291.396 41.4476 290.966 41.7539 290.662 41.4476C290.754 41.0508 291.058 40.7746 291.244 40.4683C291.824 39.6112 292.222 38.5415 292.467 37.3781C292.435 37.2559 292.435 37.1337 292.283 37.0718C291.426 37.5923 291.152 38.5716 290.478 39.2446C289.836 39.8874 289.285 40.6223 288.277 40.9889C287.819 41.081 287.39 40.8969 287.176 40.6223C286.992 40.3461 287.024 40.0096 287.024 39.643C287.727 38.8478 288.643 38.1447 289.103 37.1336C289.408 36.8273 289.592 36.4305 289.683 35.9401C290.05 35.6036 290.112 35.083 290.172 34.5323C290.142 34.4402 290.02 34.2878 289.898 34.3799C288.889 35.4497 288.063 36.5829 286.718 37.3479C286.444 37.4098 286.106 37.3797 285.954 37.1638C285.832 36.8273 285.617 36.3369 285.74 35.9702V35.6338C285.8 35.4814 285.922 35.3274 285.922 35.1433C286.044 34.6227 286.412 34.2862 286.594 33.8276C286.472 33.5514 286.778 33.6133 286.839 33.4911C287.571 32.634 288.519 31.961 288.795 30.7675H288.857C288.919 30.1247 288.643 29.5739 288.367 29.085C288.305 28.5041 289.101 28.6264 289.468 28.4121C290.354 28.1391 291.149 28.6581 291.547 29.2088Z" fill="white" stroke="white" stroke-width="0.582928" stroke-miterlimit="2" stroke-linecap="square"/>
<path d="M196.864 29.239C199.891 31.7182 202.366 34.5624 204.66 37.5622C204.721 37.7145 204.752 37.8367 204.721 38.0209C204.66 38.205 204.477 38.3875 204.447 38.6018C204.203 38.9081 204.049 39.3049 203.805 39.5811C203.408 39.735 203.255 39.3366 203.04 39.1843C200.961 36.4607 198.486 33.9831 195.917 31.6261C195.643 31.4721 195.795 31.0134 195.763 30.7071H195.795C195.857 30.1564 196.101 29.85 196.253 29.3914C196.344 29.239 196.648 29.0565 196.864 29.239Z" fill="black"/>
<path d="M243.396 29.8835C243.732 30.1279 244.128 30.3422 244.19 30.8009C243.518 31.2596 242.355 31.4437 242.601 32.5753C242.723 32.7896 242.937 32.942 243.213 33.034C243.671 33.0658 243.946 32.6674 244.344 32.5135C246.759 32.1151 247.86 34.1657 248.9 35.4513C249.939 37.0433 251.009 38.5416 251.681 40.4081C252.078 41.0811 252.324 41.8461 252.568 42.6428C252.996 43.346 253.088 44.3253 253.332 45.1522C253.454 45.9791 253.637 46.7743 253.729 47.6615C253.607 48.5488 254.065 49.0693 253.913 50.0169C253.699 50.5375 252.994 50.2312 252.506 50.2613C250.489 49.8328 248.562 49.1598 246.299 49.3439C245.719 48.9455 245.779 48.1504 245.383 47.6599C244.832 46.833 244.222 45.9759 243.059 45.549C242.387 45.5172 241.713 45.7315 241.072 45.9156C241.042 46.0077 240.98 46.2219 241.104 46.2521C242.173 47.1393 243.427 47.9044 243.335 49.6185C243.243 49.6185 243.243 49.7106 243.243 49.7709C243.181 50.6581 241.959 50.7803 241.378 51.3009C241.317 51.7612 241.5 52.066 241.684 52.3421C242.541 53.2294 243.733 52.404 244.62 52.0977C245.965 50.4756 248.992 50.8422 250.887 51.4549C253.699 52.7707 257.184 51.7914 259.233 49.9852C259.447 49.8026 259.507 50.1074 259.539 50.2296V50.5962H259.507C259.569 51.0867 259.233 51.239 259.263 51.6676C259.201 51.8517 259.079 52.004 259.079 52.1882C257.795 55.5228 255.135 58.2766 250.885 59.0416C248.928 59.286 246.972 59.0115 245.352 58.1242C245.016 58.0623 245.046 58.3385 244.893 58.4909C243.702 61.0923 241.653 63.1413 238.809 64.5793C235.263 66.2316 229.853 65.9252 227.131 63.3238C227.069 63.1096 227.223 63.0493 227.284 62.927C230.065 63.3556 232.572 61.7954 233.643 59.8971C234.315 58.9178 234.743 57.7544 235.568 56.8672C236.791 55.6435 238.259 54.3578 240.246 53.8388C240.52 53.6849 240.643 53.4722 240.643 53.104C240.52 52.7976 240.398 52.5231 240.032 52.4008C237.066 52.2469 235.14 54.3594 233.673 56.0117C233.307 56.5323 232.97 57.0513 232.664 57.6322V57.7862C232.602 57.9703 232.42 58.1226 232.39 58.3369C232.268 58.3972 232.298 58.5194 232.238 58.6416C231.748 59.8654 230.525 60.7224 229.058 61.0891C226.735 61.5176 224.412 60.2018 223.279 58.7337C222.943 58.4274 222.943 57.7544 222.331 57.7846C222.269 58.9781 222.851 59.8352 223.218 60.8145C224.684 64.5476 228.966 67.2696 233.857 67.4235C236.456 67.4854 238.809 66.8426 240.858 65.6491C242.477 64.9142 243.67 63.8428 244.71 62.6493C245.473 62.1604 246.543 63.0477 246.941 62.0684C247.338 61.7319 247.43 61.0891 248.042 60.8748C249.235 60.9066 250.519 60.9066 251.68 60.7526C251.894 60.8145 251.924 60.997 251.894 61.243H251.862C249.447 66.6284 243.21 71.0645 235.72 70.6376C229.055 70.4535 223.306 66.7823 219.516 62.8651C219.18 62.4985 219.18 61.8859 218.996 61.397C218.476 60.8462 218.294 61.7335 217.865 61.8557C216.429 62.8048 213.983 62.7128 212.547 61.6716C211.324 60.6621 210.163 59.4987 210.56 57.51C210.651 57.5417 210.621 57.4481 210.621 57.3878C210.896 56.4085 211.784 55.7673 212.914 55.4609C213.251 55.399 213.709 55.3086 213.833 55.0022C213.833 54.4515 213.343 54.2071 212.884 54.0229C212.12 53.5643 210.897 54.6959 210.805 53.4722C210.683 53.1357 210.621 52.7373 210.591 52.2786L210.56 51.4835H210.591L210.621 50.993H210.651C210.896 50.0137 211.142 49.0662 211.538 48.2393C212.272 46.8933 213.159 45.6379 214.137 44.4443C215.91 42.5175 218.049 40.8033 220.344 39.2129C222.331 37.775 224.838 36.6116 227.192 35.6021C224.807 35.5402 222.819 36.7036 220.772 37.5607C214.749 40.5589 209.857 44.3221 207.29 49.7693C206.343 51.4216 206.037 54.6642 207.259 56.318L207.872 57.2052C207.994 57.329 207.933 57.6036 207.933 57.8179C207.353 58.1845 206.679 57.6338 206.16 57.3592C204.112 56.1037 203.439 53.5039 203.959 50.8422C204.968 47.079 207.445 44.3554 210.349 41.9381C214.323 38.5114 219.917 35.7577 225.482 34.1355C230.068 32.3912 235.203 32.0246 239.759 30.1581C240.646 29.9438 241.348 29.1788 242.328 29.2391L243.396 29.8835Z" fill="white" stroke="white" stroke-width="0.582928" stroke-miterlimit="2" stroke-linecap="square"/>
<path d="M216.582 31.1674C216.948 31.8404 217.346 32.4832 217.622 33.2181L217.53 33.4323C213.678 34.9624 210.376 37.1035 207.411 39.3382H207.351C207.351 39.0017 207.655 38.8176 207.779 38.543C209.828 35.3306 212.517 32.607 215.636 30.1278C216.153 30.3103 216.277 30.8309 216.582 31.1674Z" fill="#00C0F3" stroke="white" stroke-width="0.349757" stroke-miterlimit="2" stroke-linecap="square"/>
<path d="M287.052 30.4945C287.114 30.8929 286.9 31.1373 286.716 31.3818C286.166 31.9627 285.524 32.4531 284.973 33.0658V33.2499C284.912 33.4324 284.881 33.6467 284.729 33.7705C283.903 34.9021 283.873 37.167 284.607 38.4209C284.912 38.8177 284.973 39.4002 285.34 39.7668C285.462 41.1144 286.288 42.0619 287.693 42.4285C288.121 42.8269 288.549 43.2237 288.978 43.6221C288.978 43.8983 288.733 43.9586 288.549 44.1126C287.571 44.449 286.867 45.0918 286.286 45.7648C286.042 45.887 285.736 46.1616 285.46 45.9489C284.299 44.603 283.473 43.0412 282.311 41.6953C281.944 41.0826 281.485 40.6239 281.15 40.0113V39.8589C281.302 39.7049 281.334 39.4304 281.516 39.278C281.822 38.7574 282.036 38.1765 281.944 37.3496C281.424 36.5226 280.814 35.8497 280.904 34.5656L280.874 33.9228H280.904C281.21 32.6674 282.067 31.9341 283.075 31.1992C284.144 30.4342 285.582 30.4342 286.927 30.3723L287.052 30.4945Z" fill="white" stroke="white" stroke-width="0.582928" stroke-miterlimit="2" stroke-linecap="square"/>
<path d="M229.086 37.3479C229.239 37.4098 229.086 37.6542 229.239 37.7145C229.209 38.0208 229.025 38.205 228.872 38.4176C228.108 38.2335 226.917 37.9891 226.335 38.6319C225.509 39.3668 224.898 40.254 224.654 41.3857C224.562 41.3857 224.622 41.5079 224.592 41.5698C224.622 42.0285 224.256 42.3031 224.438 42.7316C224.47 42.8237 224.377 43.0062 224.53 43.0379C224.346 43.0681 224.561 43.4046 224.286 43.2823C223.98 42.9459 223.858 42.5173 223.89 41.9666C223.798 41.692 223.92 41.2635 223.768 40.9873C223.92 40.8048 223.829 40.4667 223.86 40.2223H223.891C224.044 38.9065 224.748 38.0494 225.572 37.2241C226.489 36.5225 228.446 36.2781 229.086 37.3479Z" fill="#00C0F3" stroke="white" stroke-width="0.233171" stroke-miterlimit="2" stroke-linecap="square"/>
<path d="M248.744 39.0002C248.988 39.2145 248.866 39.6732 248.898 40.0414C248.622 40.408 248.316 40.7445 247.827 40.9286C247.367 41.0207 246.879 40.9588 246.573 40.7144C246.297 40.3477 245.961 40.0414 245.992 39.4589H246.024C246.054 38.9383 246.36 38.6637 246.727 38.3891C247.033 38.2352 247.461 38.0828 247.827 38.2352C248.225 38.3891 248.531 38.7256 248.744 39.0002Z" fill="#00C0F3" stroke="white" stroke-width="0.349757" stroke-miterlimit="2" stroke-linecap="square"/>
<path d="M296.285 41.0509C301.176 45.4267 305.854 49.9851 310.716 54.3911C313.009 56.7164 315.577 58.8892 317.87 61.2144C317.992 61.5509 318.482 61.643 318.298 62.2239C318.022 62.6826 317.748 63.2032 317.135 63.4174C316.585 63.4174 316.279 63.0191 315.975 62.7445C313.926 60.8478 312.031 58.9495 310.014 56.9608C308.119 55.2768 306.314 53.5944 304.511 51.8802C301.177 48.8519 297.907 45.7616 294.666 42.6698C294.178 42.1809 294.972 41.9667 295.094 41.5984C295.491 41.4175 295.643 40.7144 296.285 41.0509Z" fill="white" stroke="white" stroke-width="0.582928" stroke-miterlimit="2" stroke-linecap="square"/>
<path d="M279.775 42.1222C280.693 43.4079 281.64 44.6617 282.557 45.9474C282.893 46.0696 282.893 46.3759 282.985 46.6505C283.259 47.2631 283.871 47.6298 283.841 48.4551C283.505 48.9154 283.109 49.3741 282.557 49.7106C281.64 49.8328 281.548 48.8535 281.09 48.4551C279.835 46.5283 278.43 44.7522 277.086 42.9476C276.964 42.8254 277.054 42.5809 277.024 42.3968C277.512 41.9683 277.972 41.4778 278.583 41.1112C279.257 41.1128 279.471 41.7239 279.775 42.1222Z" fill="white" stroke="white" stroke-width="0.582928" stroke-miterlimit="2" stroke-linecap="square"/>
<path d="M170.845 43.6823C170.877 43.7442 170.815 43.8347 170.877 43.8665C171.029 45.06 171.335 46.0996 171.671 47.2027C172.558 48.6105 173.567 49.9565 174.179 51.5786C174.24 51.8532 174.393 52.0674 174.423 52.3436C174.331 52.3436 174.361 52.4357 174.361 52.496C173.628 54.3022 172.864 56.0449 172.222 57.8813L171.855 58.1257C166.537 58.2178 161.889 59.9621 157.394 62.0111C155.866 62.7142 154.583 63.6015 153.114 64.3665C152.502 64.3062 152.106 63.8459 151.585 63.5713C151.432 63.419 151.341 63.2047 151.341 62.9285C151.097 61.8572 151.311 60.6033 151.463 59.5621C151.708 59.378 151.769 59.0114 151.953 58.7352C153.328 57.1131 155.193 55.7973 157.028 54.4514C159.687 52.5848 162.929 50.8723 166.23 49.7692C166.567 49.7692 166.659 50.0136 166.721 50.2596C166.659 50.5342 166.812 50.6263 166.812 50.8723C167.119 51.9738 167.607 52.8912 168.341 53.6562C168.463 53.8705 168.769 53.8705 168.983 53.8086C169.228 53.6562 169.258 53.38 169.258 53.0435C169.104 53.0118 169.226 52.8293 169.136 52.7372C168.493 51.5135 168.433 49.3407 168.861 47.9646C168.708 46.2203 169.106 44.66 170.176 43.6808C170.295 43.53 170.815 43.376 170.845 43.6823Z" fill="white" stroke="white" stroke-width="0.582928" stroke-miterlimit="2" stroke-linecap="square"/>
<path d="M232.48 46.1314L232.542 46.9584C232.419 47.0504 232.419 47.1425 232.389 47.2948C232.145 47.6615 231.809 47.998 231.289 48.1218C230.494 48.2757 229.882 47.8154 229.364 47.4488C229.242 46.9885 228.935 46.7139 229.058 46.133C229.15 45.9489 229.211 45.7965 229.272 45.6124C229.546 45.1839 230.098 44.9077 230.708 44.8776C231.593 44.876 232.266 45.4569 232.48 46.1314Z" fill="#00C0F3" stroke="white" stroke-width="0.349757" stroke-miterlimit="2" stroke-linecap="square"/>
<path d="M216.368 48.609C215.542 49.3121 214.411 49.7708 213.524 50.4136C212.974 50.5358 212.944 50.0168 212.698 49.8026V49.6486C213.555 49.0058 214.533 48.3328 215.634 47.9043C216.033 47.9964 216.216 48.3646 216.368 48.609Z" fill="#00C0F3" stroke="white" stroke-width="0.233171" stroke-miterlimit="2" stroke-linecap="square"/>
<path d="M217.438 50.6294C216.154 51.2103 215.023 52.0373 213.831 52.6801C213.525 52.496 213.25 52.2515 213.188 51.8849C214.075 50.9675 215.42 50.3548 216.612 49.7438C217.102 49.8327 217.346 50.2009 217.438 50.6294Z" fill="#00C0F3" stroke="white" stroke-width="0.233171" stroke-miterlimit="2" stroke-linecap="square"/>
<path d="M178.429 53.1992V53.5356H178.398C177.297 55.7085 176.411 58.0036 175.556 60.3589C175.006 60.6653 174.546 60.1145 174.179 59.9002C173.935 59.7479 174.057 59.3495 174.027 59.0733C174.089 58.921 174.211 58.767 174.211 58.6146C175.037 56.4719 175.832 54.3911 176.81 52.4024C177.391 52.004 177.911 52.7389 178.369 52.9531L178.429 53.1992Z" fill="white" stroke="white" stroke-width="0.582928" stroke-miterlimit="2" stroke-linecap="square"/>
<path d="M159.718 54.7593C159.81 54.9434 159.78 55.1561 159.78 55.3719C158.863 56.1052 157.731 56.7179 156.784 57.4226C155.348 58.4939 153.941 59.6557 152.442 60.6652C154.247 58.34 156.723 56.4417 159.169 54.545C159.382 54.2704 159.626 54.6053 159.718 54.7593Z" fill="black" stroke="white" stroke-width="0.233171" stroke-miterlimit="2" stroke-linecap="square"/>
<path d="M160.788 57.7575C161.124 58.6448 160.145 58.6448 159.717 58.9812C157.516 59.9605 155.713 61.1843 153.664 62.2556V62.0112C155.559 60.2066 157.76 58.6448 160.299 57.2988C160.634 57.2068 160.696 57.575 160.788 57.7575Z" fill="black" stroke="white" stroke-width="0.233171" stroke-miterlimit="2" stroke-linecap="square"/>
<path d="M221.016 89.06H220.986C220.894 89.5806 221.138 89.825 221.26 90.1917C222.483 91.3852 223.645 92.609 225.143 93.6184C225.449 93.7708 225.785 94.0771 226.243 94.047C228.26 93.1597 230.247 92.1185 232.144 91.0789H232.54C234.191 92.3344 235.568 93.8025 237.431 94.9342C237.645 95.0866 237.981 95.0866 238.165 94.9342C239.572 92.9153 240.856 90.8028 242.017 88.6299C243.058 86.611 244.28 84.6826 245.135 82.5415C245.289 82.4494 245.319 82.2351 245.379 82.0828C245.593 81.4701 245.929 81.0114 246.144 80.3686H246.175C246.267 80.1543 246.267 79.848 246.45 79.6957C246.94 78.3497 247.488 77.0641 247.916 75.6579C248.681 73.6691 249.201 71.4661 249.721 69.2933H249.751C249.721 68.9568 249.873 68.2537 249.355 68.4981C246.878 70.2726 243.942 72.0169 240.611 72.5375C234.19 73.6993 227.892 72.047 223.032 68.7727H222.757C222.391 68.925 222.478 69.4155 222.543 69.9662C222.957 75.4595 223.186 79.2084 221.016 89.06Z" fill="white" stroke="white" stroke-width="0.582928" stroke-miterlimit="2" stroke-linecap="square"/>
<path d="M234.255 81.038C233.919 82.0279 234.195 83.0178 234.873 83.249C235.552 83.4802 236.374 82.8651 236.711 81.8752C237.048 80.8853 236.772 79.8954 236.093 79.6642C235.415 79.433 234.592 80.0481 234.255 81.038Z" fill="#00C0F3" stroke="white" stroke-width="0.349757"/>
<path d="M232.04 86.0986C231.703 87.0887 231.98 88.0785 232.658 88.3096C233.337 88.5406 234.159 87.9253 234.496 86.9353C234.833 85.9453 234.556 84.9554 233.877 84.7244C233.199 84.4934 232.376 85.1086 232.04 86.0986Z" fill="#00C0F3" stroke="white" stroke-width="0.349757"/>
<path d="M229.683 73.0119L228.536 80.0495L237.25 76.1482L243.289 80.2019L246.345 71.8644L244.282 72.7818L242.599 77.3719L237.479 74.1594L231.059 76.9894L231.365 73.623L229.683 73.0119Z" fill="#00C0F3" stroke="white" stroke-width="0.349757"/>
<path d="M310.187 51.3881C309.966 51.185 309.744 50.9834 309.524 50.7818L300.994 42.7951L297.814 39.8271C297.418 39.2763 296.591 39.0938 296.775 38.1447C296.897 37.9003 296.561 37.778 296.775 37.5939C296.775 36.7369 296.867 35.7877 296.409 35.2068C295.829 34.7481 296.133 33.6466 295.889 32.9117C295.767 32.2086 295.705 31.5039 295.339 30.9849C294.91 30.0977 293.78 29.7612 292.954 29.1787C292.923 28.5359 292.649 28.0772 292.343 27.6804C291.12 26.4868 288.765 26.7313 287.176 27.2217C286.474 27.3741 285.984 28.1089 285.251 27.9851C278.922 22.2332 272.869 16.3273 266.694 10.4833C266.418 10.269 266.328 9.90237 266.234 9.56588C265.898 8.40248 266.6 7.51524 267.365 6.93434C268.741 6.0471 269.994 7.33272 271.401 7.30097C272.623 7.36287 273.664 6.68832 274.122 5.86299C274.154 5.67887 274.184 5.5884 274.274 5.49635C274.182 5.09955 274.396 4.91544 274.366 4.54721H274.396C274.396 3.93615 274.182 3.47586 274.06 2.9267C273.234 1.42681 271.339 0.509421 269.322 0.387208C267.855 0.142782 266.478 0.571321 265.194 0.99986C262.076 2.28548 260.271 4.70276 259.843 8.00727H259.783C259.721 10.6991 260.393 12.8418 261.832 14.4322C267.733 20.1238 273.756 25.7853 279.655 31.5071C280.021 32.242 279.258 32.7927 279.258 33.618H279.228C279.106 34.537 279.411 35.1481 279.533 35.9433C279.655 36.4639 280.115 36.8924 279.961 37.5035C279.961 38.2066 278.86 37.7177 278.83 38.3907C277.822 39.124 277.057 40.0731 276.049 40.8381C275.468 41.2048 275.192 40.5017 274.734 40.4413C271.126 43.7459 266.938 46.6536 262.322 49.2534C262.016 49.3454 261.68 49.62 261.404 49.3153C261.067 48.6423 261.19 47.6313 261.007 46.8678C260.793 46.1346 260.823 45.2473 260.151 44.8489C259.967 44.9712 259.937 45.2156 259.907 45.4918C259.907 45.6759 259.784 45.8282 259.724 45.9822C259.204 47.4821 258.378 48.7661 256.819 49.5311C256.575 49.593 256.329 49.4391 256.237 49.2248C255.963 46.471 255.565 43.8395 254.648 41.5762C253.089 37.4765 250.826 33.8355 247.677 30.8659C247.096 30.0707 246.088 29.5802 245.353 28.8771C245.109 28.5105 244.589 28.3867 244.527 27.8359C245.047 27.3153 245.718 26.8868 246.33 26.4583C248.013 24.8377 249.816 23.3379 250.244 20.8587C250.182 20.6444 250.122 20.4301 250.03 20.1857C249.754 19.7889 249.142 19.4826 248.501 19.635C247.951 19.7572 247.707 20.1238 247.431 20.492C246.392 22.6951 244.557 24.3473 242.478 25.8155C242.234 25.8774 241.928 25.9996 241.714 25.8456C240.766 25.1425 240.033 24.2553 239.024 23.6124C238.749 23.1537 238.26 22.8792 237.894 22.4506C236.639 20.8285 235.173 19.3905 234.042 17.678L233.89 17.3415C231.903 15.0163 230.404 12.2625 229.029 9.50875C228.571 8.52945 228.051 7.61206 226.828 7.21368C223.372 6.32644 219.888 7.36605 216.739 8.13107C209.921 10.5785 204.113 14.4957 199.832 19.0858C198.334 20.646 197.051 22.3602 195.919 24.1648C195.307 24.7774 195.124 25.6329 194.604 26.3075C194.33 27.3169 193.748 28.082 193.503 29.1216C193.044 30.0707 192.983 32.1197 193.534 33.0387C197.049 35.9464 200.139 39.1891 202.554 42.8602C202.738 43.0443 202.798 43.4411 203.196 43.2887C203.686 42.9523 204.052 42.4618 204.389 41.973C205.825 38.6367 207.904 35.7306 210.38 33.1292C215.364 27.8359 222.608 22.5427 231.354 21.411C232.21 21.4412 233.127 21.1666 233.891 21.5031C234.075 21.6872 234.288 21.8999 234.135 22.176C232.393 22.4506 230.62 22.6649 228.999 23.2458V23.368C230.498 24.8679 231.964 26.3678 233.555 27.774L233.951 27.9582C235.48 27.774 236.919 27.3455 238.293 26.7963H238.814C239.058 27.0106 239.364 27.1011 239.426 27.4074C239.334 27.5296 239.304 27.6836 239.181 27.774C237.286 28.8454 235.146 29.458 232.975 29.8866C228.084 30.804 223.406 32.334 218.85 33.9561C212.674 36.3416 207.752 39.862 204.114 44.2379C202.617 46.0441 201.731 48.2154 201.149 50.6945H201.119C201.087 50.9294 201.063 51.1628 201.046 51.3929H283.664C283.905 51.058 284.325 50.8612 284.552 50.5104C285.316 49.7756 286.233 49.0423 286.753 48.2455C286.599 47.7551 287.057 47.6027 287.211 47.2662C288.22 46.3171 289.136 45.2156 290.787 44.787C291.582 44.5426 292.438 43.1348 293.294 44.2363C295.805 46.6917 298.466 49.0185 301.078 51.3913H310.187V51.3881Z" fill="black"/>
<path d="M181.418 51.3881C181.112 51.1977 180.807 51.0056 180.506 50.812L180.048 50.658C179.16 51.6992 178.427 50.1692 177.632 49.9248C177.082 49.6486 176.624 48.8836 175.829 49.1899C175.401 49.0978 175.401 48.6693 175.127 48.4868C174.515 47.3853 173.536 46.5901 172.896 45.5187C172.804 44.5394 172.498 43.6221 172.681 42.5507H172.712C172.65 42.1222 172.834 41.5413 172.559 41.2651C172.253 40.9286 171.643 40.9889 171.183 41.0508C168.676 41.4476 167.545 43.3459 167.055 45.4267H167.025L166.993 45.9473H166.963L166.931 46.8345H166.869C166.961 47.0488 166.777 47.1091 166.655 47.2012C163.842 48.3328 160.938 49.5867 158.369 51.0866C158.217 51.1866 158.065 51.285 157.911 51.3866L181.418 51.3881Z" fill="black"/>
<path d="M301.073 51.3881C302.692 52.8578 304.292 54.345 305.826 55.8909C309.098 58.705 312.123 61.6444 315.243 64.5807C315.793 64.9172 316.099 65.8044 317.047 65.468C318.79 64.7648 320.013 63.6316 320.411 61.919H320.441C320.625 60.9699 319.921 60.6953 319.524 60.1446C316.383 57.2575 313.321 54.264 310.19 51.3881H301.073Z" fill="black"/>
<path d="M157.915 51.3881C154.391 53.7022 150.507 56.3464 149.629 60.4509H149.597L149.567 61.0619H149.505C149.535 61.6746 149.779 62.2857 149.597 62.8983C149.567 62.9602 149.629 63.0824 149.505 63.0824C149.627 63.357 149.321 63.4808 149.473 63.7252C149.443 65.0109 151.278 64.9188 151.522 66.0203C152.194 66.6631 153.235 66.1441 153.967 65.8981C158.462 63.2665 163.446 61.4302 168.827 60.727C169.835 60.635 171.058 60.5128 172.036 60.8191C172.77 61.5825 173.993 61.9809 174.666 62.8078C174.635 63.511 174.451 64.0935 174.269 64.6744C174.269 64.8585 174.147 65.0108 174.117 65.195C174.055 65.4394 174.147 65.6235 174.331 65.7457C181.27 70.0295 189.372 72.4166 197.688 73.9149C203.467 74.9545 209.52 75.2609 215.604 75.5672L215.91 75.7212L215.818 75.8735C214.961 76.1481 214.015 76.21 213.188 76.5163C212.982 81.5429 211.799 91.6311 211.135 93.9341C214.75 99.0511 220.313 102.392 227.052 102.392C231.787 102.392 236.138 100.741 239.561 97.9861L239.541 97.9671C243.363 92.0612 251.005 77.9083 252.26 69.7248C252.322 69.4185 252.382 69.082 252.688 68.9915L258.1 67.4615C268.067 64.4315 277.238 59.2303 283.903 52.9276C283.935 52.4991 283.629 52.3467 283.475 52.0087C283.466 51.7484 283.54 51.5531 283.657 51.3912H201.039C200.729 55.2687 202.183 58.2225 205.27 59.8112C206.371 60.4223 207.654 60.5445 208.908 60.8207C209.122 61.1254 209.428 61.3714 209.398 61.8301C209.244 61.8904 209.062 61.9825 208.878 61.8904C199.094 59.943 189.593 56.4623 181.418 51.3897H157.915V51.3881Z" fill="black"/>
<path d="M239.543 97.9656C243.365 92.0597 251.007 77.9068 252.261 69.7233C252.323 69.4169 252.384 69.0804 252.69 68.99L258.102 67.4599C268.069 64.43 277.24 59.2288 283.905 52.9261C283.937 52.4976 283.631 52.3452 283.477 52.0071C283.445 51.212 284.209 51.0278 284.547 50.5088C285.312 49.774 286.228 49.0407 286.748 48.2439C286.595 47.7535 287.053 47.6011 287.207 47.2646C288.215 46.3155 289.132 45.214 290.783 44.7855C291.577 44.541 292.434 43.1332 293.29 44.2347C297.356 48.2122 301.818 51.8532 305.824 55.8926C309.096 58.7066 312.121 61.6461 315.241 64.5824C315.791 64.9189 316.097 65.8061 317.045 65.4696C318.788 64.7665 320.011 63.6332 320.409 61.9207H320.439C320.623 60.9715 319.919 60.697 319.523 60.1462C316.159 57.056 312.887 53.8435 309.525 50.7834L300.995 42.7967L297.816 39.8287C297.419 39.2779 296.593 39.0954 296.777 38.1463C296.899 37.9018 296.563 37.7796 296.777 37.5955C296.777 36.7384 296.869 35.7893 296.411 35.2084C295.83 34.7497 296.135 33.6482 295.891 32.9133C295.768 32.2102 295.707 31.5055 295.34 30.9865C294.912 30.0993 293.781 29.7628 292.955 29.1803C292.925 28.5375 292.651 28.0788 292.345 27.682C291.122 26.4884 288.767 26.7328 287.178 27.2233C286.476 27.3757 285.986 28.1105 285.253 27.9867C278.924 22.2348 272.871 16.3289 266.696 10.4849C266.42 10.2706 266.329 9.90395 266.236 9.56747C265.9 8.40406 266.602 7.51683 267.366 6.93592C268.743 6.04869 269.996 7.3343 271.402 7.30256C272.625 7.36446 273.665 6.68991 274.124 5.86457C274.155 5.68046 274.185 5.58999 274.276 5.49793C274.184 5.10114 274.398 4.91703 274.368 4.5488H274.398C274.398 3.93773 274.184 3.47745 274.062 2.92829C273.236 1.4284 271.34 0.511008 269.323 0.388795C267.856 0.144369 266.48 0.572908 265.195 1.00145C262.078 2.28706 260.273 4.70434 259.845 8.00886H259.785C259.723 10.7007 260.395 12.8434 261.833 14.4338C267.734 20.1254 273.757 25.7869 279.657 31.5087C280.023 32.2435 279.26 32.7943 279.26 33.6196H279.23C279.108 34.5386 279.412 35.1497 279.534 35.9449C279.657 36.4654 280.116 36.894 279.963 37.5051C279.963 38.2082 278.862 37.7193 278.832 38.3923C277.823 39.1256 277.059 40.0747 276.05 40.8397C275.47 41.2064 275.194 40.5032 274.736 40.4429C271.128 43.7474 266.94 46.6552 262.324 49.255C262.017 49.347 261.681 49.6216 261.405 49.3169C261.069 48.6439 261.191 47.6329 261.009 46.8694C260.795 46.1361 260.825 45.2489 260.153 44.8505C259.969 44.9727 259.938 45.2172 259.908 45.4933C259.908 45.6774 259.786 45.8298 259.726 45.9838C259.206 47.4837 258.38 48.7677 256.821 49.5327C256.576 49.5946 256.331 49.4407 256.239 49.2264C255.964 46.4726 255.566 43.8411 254.65 41.5778C253.091 37.4781 250.828 33.8371 247.678 30.8675C247.098 30.0723 246.089 29.5818 245.355 28.8787C245.111 28.5121 244.591 28.3883 244.529 27.8375C245.049 27.3169 245.72 26.8884 246.332 26.4599C248.015 24.8393 249.818 23.3395 250.246 20.8603C250.184 20.646 250.124 20.4317 250.032 20.1873C249.756 19.7905 249.144 19.4842 248.503 19.6366C247.953 19.7588 247.709 20.1254 247.433 20.4936C246.394 22.6966 244.559 24.3489 242.48 25.817C242.236 25.8789 241.93 26.0012 241.716 25.8472C240.767 25.1441 240.035 24.2568 239.026 23.614C238.75 23.1553 238.262 22.8808 237.896 22.4522C236.641 20.8301 235.174 19.3921 234.044 17.6796L233.891 17.3431C231.904 15.0179 230.406 12.2641 229.031 9.51033C228.572 8.53104 228.052 7.61365 226.83 7.21527C223.374 6.32803 219.89 7.36763 216.741 8.13266C209.923 10.5801 204.114 14.4973 199.834 19.0874C198.336 20.6476 197.053 22.3617 195.92 24.1664C195.308 24.779 195.126 25.6345 194.606 26.3091C194.331 27.3185 193.749 28.0835 193.505 29.1231C193.045 30.0723 192.985 32.1213 193.535 33.0403C197.051 35.948 200.14 39.1906 202.555 42.8618C202.739 43.0459 202.8 43.4427 203.198 43.2903C203.688 42.9538 204.054 42.4634 204.39 41.9746C205.827 38.6383 207.906 35.7322 210.382 33.1308C215.366 27.8375 222.61 22.5443 231.356 21.4126C232.212 21.4428 233.129 21.1682 233.893 21.5047C234.077 21.6888 234.289 21.9015 234.137 22.1776C232.394 22.4522 230.621 22.6665 229.001 23.2474V23.3696C230.499 24.8695 231.966 26.3694 233.557 27.7756L233.953 27.9597C235.482 27.7756 236.92 27.3471 238.295 26.7979H238.815C239.06 27.0122 239.366 27.1027 239.427 27.409C239.335 27.5312 239.305 27.6852 239.183 27.7756C237.288 28.847 235.147 29.4596 232.976 29.8882C228.086 30.8056 223.407 32.3356 218.851 33.9577C212.676 36.3432 207.754 39.8636 204.116 44.2395C202.619 46.0457 201.732 48.2169 201.15 50.6961H201.12C200.57 54.918 202.007 58.1321 205.278 59.8145C206.379 60.4255 207.662 60.5478 208.916 60.8239C209.13 61.1287 209.436 61.3747 209.406 61.8334C209.252 61.8937 209.07 61.9857 208.886 61.8937C198.735 59.8748 188.892 56.2036 180.514 50.8167L180.056 50.6628C179.168 51.704 178.435 50.1739 177.641 49.9295C177.09 49.6533 176.632 48.8883 175.838 49.1946C175.409 49.1026 175.409 48.6741 175.135 48.4915C174.523 47.39 173.544 46.5948 172.904 45.5235C172.812 44.5442 172.506 43.6268 172.69 42.5555H172.72C172.658 42.1269 172.842 41.546 172.568 41.2698C172.262 40.9334 171.651 40.9937 171.191 41.0556C168.684 41.4524 167.553 43.3506 167.063 45.4314H167.033L167.001 45.952H166.971L166.94 46.8393H166.878C166.97 47.0535 166.786 47.1139 166.664 47.2059C163.85 48.3376 160.947 49.5914 158.378 51.0913C154.74 53.4785 150.55 56.1703 149.633 60.4541H149.602L149.572 61.0652H149.51C149.54 61.6778 149.784 62.2889 149.602 62.9016C149.572 62.9635 149.633 63.0857 149.51 63.0857C149.632 63.3602 149.326 63.484 149.478 63.7285C149.448 65.0141 151.283 64.922 151.527 66.0235C152.199 66.6663 153.24 66.1473 153.972 65.9013C158.466 63.2698 163.451 61.4334 168.831 60.7303C169.84 60.6382 171.063 60.516 172.041 60.8223C172.775 61.5858 173.998 61.9842 174.67 62.8111C174.64 63.5142 174.456 64.0967 174.274 64.6776C174.274 64.8617 174.152 65.0141 174.122 65.1982C174.06 65.4426 174.152 65.6267 174.336 65.749C181.275 70.0328 189.377 72.4199 197.693 73.9182C203.472 74.9578 209.525 75.2641 215.608 75.5704L215.914 75.7244L215.822 75.8768C214.966 76.1513 214.019 76.2133 213.193 76.5196C212.987 81.5462 211.804 91.6343 211.14 93.9373C214.755 99.0544 220.318 102.395 227.056 102.395C231.792 102.395 236.143 100.745 239.565 97.9894L239.543 97.9656Z" stroke="black" stroke-width="0.466342"/>
<path d="M272.408 3.84248C272.56 4.17897 272.56 4.54561 272.56 4.97414C272.285 5.46458 271.551 5.61695 270.941 5.5249C269.534 4.51545 267.333 4.48529 265.866 5.43284C265.5 5.89154 264.826 6.19786 264.704 6.84067C264.612 6.99304 264.459 7.0851 264.49 7.36127C264.428 7.51364 264.306 7.63585 264.306 7.81996C264.122 8.55483 264.092 9.96266 264.612 10.5737C264.796 11.0943 265.254 11.3689 265.468 11.8593C266.569 13.2053 267.913 14.3068 269.23 15.5003L271.859 17.9795C272.501 18.7128 273.296 19.4477 274.06 20.1206C277.087 23.1506 280.327 25.9964 283.354 29.0549C283.538 29.6675 282.498 29.6056 282.1 29.912C281.856 30.0643 281.58 30.1865 281.306 30.1262C280.541 29.6374 279.961 28.9644 279.319 28.3819C274.122 23.2712 268.679 18.4065 263.451 13.3576C262.32 12.3482 261.832 10.9102 261.618 9.25795L261.586 8.06439H261.618L261.648 7.57395H261.678C262.26 5.09477 263.665 3.04572 266.448 2.31085C268.617 1.91564 271.093 2.37434 272.408 3.84248Z" fill="white"/>
<path d="M220.099 10.1151C221.718 14.0021 224.103 17.3669 226.61 20.6413C226.733 20.7333 226.641 20.9777 226.672 21.1619C224.99 21.8047 223.217 22.3856 221.566 23.1506C218.907 24.4061 216.675 25.9044 214.442 27.4646C213.556 27.4344 213.434 26.5472 212.914 26.0869C210.591 23.2411 207.899 20.6095 205.272 17.9796C205.24 17.7653 205.18 17.6732 205.18 17.4288C206.769 15.6845 209.063 14.4608 211.203 13.1148C213.68 11.707 216.369 10.4531 219.213 9.68812C219.669 9.56432 219.945 9.81033 220.099 10.1151Z" fill="white"/>
<path d="M291.547 29.2088C291.883 29.6056 291.823 30.3405 292.037 30.7992C292.557 31.0738 293.321 30.9833 293.78 31.4103C294.422 31.9309 294.482 32.7879 294.636 33.645C294.422 33.8291 294.758 33.9196 294.636 34.1656V34.7164H294.604C294.512 34.8687 294.636 35.1132 294.482 35.2052C294.91 35.848 295.186 36.5527 295.064 37.5622H295.032C294.849 39.5208 293.504 40.5905 291.793 41.4476C291.396 41.4476 290.966 41.7539 290.662 41.4476C290.754 41.0508 291.058 40.7746 291.244 40.4683C291.824 39.6112 292.222 38.5415 292.467 37.3781C292.435 37.2559 292.435 37.1337 292.283 37.0718C291.426 37.5923 291.152 38.5716 290.478 39.2446C289.836 39.8874 289.285 40.6223 288.277 40.9889C287.819 41.081 287.39 40.8969 287.176 40.6223C286.992 40.3461 287.024 40.0096 287.024 39.643C287.727 38.8478 288.643 38.1447 289.103 37.1336C289.408 36.8273 289.592 36.4305 289.683 35.9401C290.05 35.6036 290.112 35.083 290.172 34.5323C290.142 34.4402 290.02 34.2878 289.898 34.3799C288.889 35.4497 288.063 36.5829 286.718 37.3479C286.444 37.4098 286.106 37.3797 285.954 37.1638C285.832 36.8273 285.617 36.3369 285.74 35.9702V35.6338C285.8 35.4814 285.922 35.3274 285.922 35.1433C286.044 34.6227 286.412 34.2862 286.594 33.8276C286.472 33.5514 286.778 33.6133 286.839 33.4911C287.571 32.634 288.519 31.961 288.795 30.7675H288.857C288.919 30.1247 288.643 29.5739 288.367 29.085C288.305 28.5041 289.101 28.6264 289.468 28.4121C290.354 28.1391 291.149 28.6581 291.547 29.2088Z" fill="white"/>
<path d="M196.864 29.239C199.891 31.7182 202.366 34.5624 204.66 37.5622C204.721 37.7145 204.752 37.8367 204.721 38.0209C204.66 38.205 204.477 38.3875 204.447 38.6018C204.203 38.9081 204.049 39.3049 203.805 39.5811C203.408 39.735 203.255 39.3366 203.04 39.1843C200.961 36.4607 198.486 33.9831 195.917 31.6261C195.643 31.4721 195.795 31.0134 195.763 30.7071H195.795C195.857 30.1564 196.101 29.85 196.253 29.3914C196.344 29.239 196.648 29.0565 196.864 29.239Z" fill="white"/>
<path d="M243.396 29.8834C243.732 30.1278 244.128 30.3421 244.19 30.8008C243.518 31.2595 242.355 31.4436 242.601 32.5752C242.723 32.7895 242.937 32.9419 243.213 33.0339C243.671 33.0657 243.946 32.6673 244.344 32.5133C246.759 32.1149 247.86 34.1656 248.9 35.4512C249.939 37.0431 251.009 38.5414 251.681 40.408C252.078 41.0809 252.324 41.846 252.568 42.6427C252.996 43.3458 253.088 44.3251 253.332 45.1521C253.454 45.979 253.637 46.7742 253.729 47.6614C253.607 48.5486 254.065 49.0692 253.913 50.0168C253.699 50.5374 252.994 50.231 252.506 50.2612C250.489 49.8327 248.562 49.1597 246.299 49.3438C245.719 48.9454 245.779 48.1502 245.383 47.6598C244.832 46.8329 244.222 45.9758 243.059 45.5489C242.387 45.5171 241.713 45.7314 241.072 45.9155C241.042 46.0076 240.98 46.2218 241.104 46.252C242.173 47.1392 243.427 47.9042 243.335 49.6184C243.243 49.6184 243.243 49.7105 243.243 49.7708C243.181 50.658 241.959 50.7802 241.378 51.3008C241.317 51.7611 241.5 52.0658 241.684 52.342C242.541 53.2292 243.733 52.4039 244.62 52.0976C245.965 50.4755 248.992 50.8421 250.887 51.4548C253.699 52.7705 257.184 51.7912 259.233 49.985C259.447 49.8025 259.507 50.1072 259.539 50.2295V50.5961H259.507C259.569 51.0865 259.233 51.2389 259.263 51.6674C259.201 51.8516 259.079 52.0039 259.079 52.188C257.795 55.5227 255.135 58.2765 250.885 59.0415C248.928 59.2859 246.972 59.0113 245.352 58.1241C245.016 58.0622 245.046 58.3384 244.893 58.4907C243.702 61.0921 241.653 63.1412 238.809 64.5792C235.263 66.2314 229.853 65.9251 227.131 63.3237C227.069 63.1094 227.223 63.0491 227.284 62.9269C230.065 63.3555 232.572 61.7953 233.643 59.897C234.315 58.9177 234.743 57.7543 235.568 56.8671C236.791 55.6433 238.259 54.3577 240.246 53.8387C240.52 53.6848 240.643 53.4721 240.643 53.1038C240.52 52.7975 240.398 52.5229 240.032 52.4007C237.066 52.2468 235.14 54.3593 233.673 56.0116C233.307 56.5322 232.97 57.0512 232.664 57.6321V57.786C232.602 57.9701 232.42 58.1225 232.39 58.3368C232.268 58.3971 232.298 58.5193 232.238 58.6415C231.748 59.8652 230.525 60.7223 229.058 61.089C226.735 61.5175 224.412 60.2017 223.279 58.7336C222.943 58.4273 222.943 57.7543 222.331 57.7844C222.269 58.978 222.851 59.8351 223.218 60.8144C224.684 64.5474 228.966 67.2694 233.857 67.4234C236.456 67.4853 238.809 66.8425 240.858 65.6489C242.477 64.9141 243.67 63.8427 244.71 62.6492C245.473 62.1603 246.543 63.0475 246.941 62.0682C247.338 61.7318 247.43 61.089 248.042 60.8747C249.235 60.9064 250.519 60.9064 251.68 60.7525C251.894 60.8144 251.924 60.9969 251.894 61.2429H251.862C249.447 66.6282 243.21 71.0644 235.72 70.6375C229.055 70.4533 223.306 66.7822 219.516 62.865C219.18 62.4984 219.18 61.8857 218.996 61.3969C218.476 60.8461 218.294 61.7334 217.865 61.8556C216.429 62.8047 213.983 62.7126 212.547 61.6715C211.324 60.662 210.163 59.4986 210.56 57.5099C210.651 57.5416 210.621 57.448 210.621 57.3877C210.896 56.4084 211.784 55.7671 212.914 55.4608C213.251 55.3989 213.709 55.3084 213.833 55.0021C213.833 54.4514 213.343 54.2069 212.884 54.0228C212.12 53.5641 210.897 54.6958 210.805 53.4721C210.683 53.1356 210.621 52.7372 210.591 52.2785L210.56 51.4833H210.591L210.621 50.9929H210.651C210.896 50.0136 211.142 49.0661 211.538 48.2391C212.272 46.8932 213.159 45.6377 214.137 44.4442C215.91 42.5173 218.049 40.8032 220.344 39.2128C222.331 37.7748 224.838 36.6114 227.192 35.602C224.807 35.5401 222.819 36.7035 220.772 37.5606C214.749 40.5588 209.857 44.322 207.29 49.7692C206.343 51.4214 206.037 54.664 207.259 56.3179L207.872 57.2051C207.994 57.3289 207.933 57.6035 207.933 57.8178C207.353 58.1844 206.679 57.6337 206.16 57.3591C204.112 56.1036 203.439 53.5038 203.959 50.8421C204.968 47.0789 207.445 44.3553 210.349 41.938C214.323 38.5113 219.917 35.7575 225.482 34.1354C230.068 32.3911 235.203 32.0245 239.759 30.158C240.646 29.9437 241.348 29.1787 242.328 29.239L243.396 29.8834Z" fill="white"/>
<path d="M216.582 31.1673C216.948 31.8403 217.346 32.4831 217.622 33.2179L217.53 33.4322C213.678 34.9622 210.376 37.1034 207.411 39.3381H207.351C207.351 39.0016 207.655 38.8175 207.779 38.5429C209.828 35.3305 212.517 32.6069 215.636 30.1277C216.153 30.3102 216.277 30.8308 216.582 31.1673Z" fill="black"/>
<path d="M287.052 30.4944C287.114 30.8928 286.9 31.1372 286.716 31.3816C286.166 31.9625 285.524 32.453 284.973 33.0656V33.2498C284.912 33.4323 284.881 33.6465 284.729 33.7703C283.903 34.902 283.873 37.1669 284.607 38.4208C284.912 38.8176 284.973 39.4001 285.34 39.7667C285.462 41.1142 286.288 42.0618 287.693 42.4284C288.121 42.8268 288.549 43.2236 288.978 43.622C288.978 43.8982 288.733 43.9585 288.549 44.1124C287.571 44.4489 286.867 45.0917 286.286 45.7647C286.042 45.8869 285.736 46.1615 285.46 45.9488C284.299 44.6029 283.473 43.0411 282.311 41.6951C281.944 41.0825 281.485 40.6238 281.15 40.0112V39.8588C281.302 39.7048 281.334 39.4302 281.516 39.2779C281.822 38.7573 282.036 38.1764 281.944 37.3494C281.424 36.5225 280.814 35.8496 280.904 34.5655L280.874 33.9227H280.904C281.21 32.6673 282.067 31.934 283.075 31.1991C284.144 30.4341 285.582 30.4341 286.927 30.3722L287.052 30.4944Z" fill="white"/>
<path d="M229.086 37.3479C229.239 37.4098 229.086 37.6542 229.239 37.7145C229.209 38.0208 229.025 38.205 228.872 38.4176C228.108 38.2335 226.917 37.9891 226.335 38.6319C225.509 39.3668 224.898 40.254 224.654 41.3857C224.562 41.3857 224.622 41.5079 224.592 41.5698C224.622 42.0285 224.256 42.3031 224.438 42.7316C224.47 42.8237 224.377 43.0062 224.53 43.0379C224.346 43.0681 224.561 43.4046 224.286 43.2823C223.98 42.9459 223.858 42.5173 223.89 41.9666C223.798 41.692 223.92 41.2635 223.768 40.9873C223.92 40.8048 223.829 40.4667 223.86 40.2223H223.891C224.044 38.9065 224.748 38.0494 225.572 37.2241C226.489 36.5225 228.446 36.2781 229.086 37.3479Z" fill="black"/>
<path d="M248.744 39.0001C248.988 39.2144 248.866 39.6731 248.898 40.0413C248.622 40.4079 248.316 40.7444 247.827 40.9285C247.367 41.0206 246.879 40.9587 246.573 40.7143C246.297 40.3476 245.961 40.0413 245.992 39.4588H246.024C246.054 38.9382 246.36 38.6636 246.727 38.389C247.033 38.2351 247.461 38.0827 247.827 38.2351C248.225 38.389 248.531 38.7255 248.744 39.0001Z" fill="black"/>
<path d="M296.285 41.0507C301.176 45.4266 305.854 49.985 310.716 54.391C313.009 56.7162 315.577 58.8891 317.87 61.2143C317.992 61.5508 318.482 61.6428 318.298 62.2238C318.022 62.6824 317.748 63.203 317.135 63.4173C316.585 63.4173 316.279 63.0189 315.975 62.7443C313.926 60.8477 312.031 58.9494 310.014 56.9607C308.119 55.2767 306.314 53.5942 304.511 51.8801C301.177 48.8517 297.907 45.7615 294.666 42.6697C294.178 42.1808 294.972 41.9665 295.094 41.5983C295.491 41.4174 295.643 40.7143 296.285 41.0507Z" fill="white"/>
<path d="M279.775 42.1221C280.693 43.4077 281.64 44.6616 282.557 45.9472C282.893 46.0694 282.893 46.3758 282.985 46.6504C283.259 47.263 283.871 47.6296 283.841 48.455C283.505 48.9153 283.109 49.374 282.557 49.7104C281.64 49.8326 281.548 48.8534 281.09 48.455C279.835 46.5281 278.43 44.7521 277.086 42.9475C276.964 42.8252 277.054 42.5808 277.024 42.3967C277.512 41.9682 277.972 41.4777 278.583 41.1111C279.257 41.1127 279.471 41.7237 279.775 42.1221Z" fill="white"/>
<path d="M170.845 43.6823C170.877 43.7442 170.815 43.8347 170.877 43.8665C171.029 45.06 171.335 46.0996 171.671 47.2027C172.558 48.6105 173.567 49.9565 174.179 51.5786C174.24 51.8532 174.393 52.0674 174.423 52.3436C174.331 52.3436 174.361 52.4357 174.361 52.496C173.628 54.3022 172.864 56.0449 172.222 57.8813L171.855 58.1257C166.537 58.2178 161.889 59.9621 157.394 62.0111C155.866 62.7142 154.583 63.6015 153.114 64.3665C152.502 64.3062 152.106 63.8459 151.585 63.5713C151.432 63.419 151.341 63.2047 151.341 62.9285C151.097 61.8572 151.311 60.6033 151.463 59.5621C151.708 59.378 151.769 59.0114 151.953 58.7352C153.328 57.1131 155.193 55.7973 157.028 54.4514C159.687 52.5848 162.929 50.8723 166.23 49.7692C166.567 49.7692 166.659 50.0136 166.721 50.2596C166.659 50.5342 166.812 50.6263 166.812 50.8723C167.119 51.9738 167.607 52.8912 168.341 53.6562C168.463 53.8705 168.769 53.8705 168.983 53.8086C169.228 53.6562 169.258 53.38 169.258 53.0435C169.104 53.0118 169.226 52.8293 169.136 52.7372C168.493 51.5135 168.433 49.3407 168.861 47.9646C168.708 46.2203 169.106 44.66 170.176 43.6808C170.295 43.53 170.815 43.376 170.845 43.6823Z" fill="white"/>
<path d="M232.48 46.1313L232.542 46.9582C232.419 47.0503 232.419 47.1424 232.389 47.2947C232.145 47.6614 231.809 47.9978 231.289 48.1216C230.494 48.2756 229.882 47.8153 229.364 47.4487C229.242 46.9884 228.935 46.7138 229.058 46.1329C229.15 45.9488 229.211 45.7964 229.272 45.6123C229.546 45.1838 230.098 44.9076 230.708 44.8774C231.593 44.8759 232.266 45.4568 232.48 46.1313Z" fill="black"/>
<path d="M216.368 48.6089C215.542 49.312 214.411 49.7707 213.524 50.4135C212.974 50.5357 212.944 50.0167 212.698 49.8024V49.6485C213.555 49.0057 214.533 48.3327 215.634 47.9042C216.033 47.9962 216.216 48.3645 216.368 48.6089Z" fill="black"/>
<path d="M217.438 50.6294C216.154 51.2103 215.023 52.0373 213.831 52.6801C213.525 52.496 213.25 52.2515 213.188 51.8849C214.075 50.9675 215.42 50.3548 216.612 49.7438C217.102 49.8327 217.346 50.2009 217.438 50.6294Z" fill="black"/>
<path d="M178.429 53.199V53.5355H178.398C177.297 55.7084 176.411 58.0034 175.556 60.3588C175.006 60.6651 174.546 60.1144 174.179 59.9001C173.935 59.7478 174.057 59.3494 174.027 59.0732C174.089 58.9208 174.211 58.7669 174.211 58.6145C175.037 56.4718 175.832 54.391 176.81 52.4023C177.391 52.0039 177.911 52.7388 178.369 52.953L178.429 53.199Z" fill="white"/>
<path d="M159.718 54.7593C159.81 54.9434 159.78 55.1561 159.78 55.3719C158.863 56.1052 157.731 56.7179 156.784 57.4226C155.348 58.4939 153.941 59.6557 152.442 60.6652C154.247 58.34 156.723 56.4417 159.169 54.545C159.382 54.2704 159.626 54.6053 159.718 54.7593Z" fill="black"/>
<path d="M160.788 57.7574C161.124 58.6446 160.145 58.6446 159.717 58.9811C157.516 59.9604 155.713 61.1841 153.664 62.2555V62.0111C155.559 60.2064 157.76 58.6446 160.299 57.2987C160.634 57.2067 160.696 57.5749 160.788 57.7574Z" fill="black"/>
<path d="M221.016 89.0599H220.986C220.894 89.5805 221.138 89.8249 221.26 90.1916C222.483 91.3851 223.645 92.6088 225.143 93.6183C225.449 93.7707 225.785 94.077 226.243 94.0468C228.26 93.1596 230.247 92.1184 232.144 91.0788H232.54C234.191 92.3343 235.568 93.8024 237.431 94.9341C237.645 95.0864 237.981 95.0864 238.165 94.9341C239.572 92.9152 240.856 90.8026 242.017 88.6298C243.058 86.6109 244.28 84.6825 245.135 82.5413C245.289 82.4493 245.319 82.235 245.379 82.0826C245.593 81.47 245.929 81.0113 246.144 80.3685H246.175C246.267 80.1542 246.267 79.8479 246.45 79.6955C246.94 78.3496 247.488 77.064 247.916 75.6577C248.681 73.669 249.201 71.466 249.721 69.2931H249.751C249.721 68.9567 249.873 68.2535 249.355 68.498C246.878 70.2724 243.942 72.0167 240.611 72.5373C234.19 73.6992 227.892 72.0469 223.032 68.7725H222.757C222.391 68.9249 222.478 69.4154 222.543 69.9661C222.957 75.4593 223.186 79.2083 221.016 89.0599Z" fill="white"/>
<path d="M234.255 81.0379C233.919 82.0278 234.195 83.0177 234.873 83.2489C235.552 83.48 236.374 82.865 236.711 81.875C237.048 80.8851 236.772 79.8952 236.093 79.6641C235.415 79.4329 234.592 80.048 234.255 81.0379Z" fill="black"/>
<path d="M232.04 86.0986C231.703 87.0887 231.98 88.0785 232.658 88.3096C233.337 88.5406 234.159 87.9253 234.496 86.9353C234.833 85.9453 234.556 84.9554 233.877 84.7244C233.199 84.4934 232.376 85.1086 232.04 86.0986Z" fill="black"/>
<path d="M229.683 73.0119L228.536 80.0495L237.25 76.1482L243.289 80.2019L246.345 71.8644L244.282 72.7818L242.599 77.3719L237.479 74.1594L231.059 76.9894L231.365 73.623L229.683 73.0119Z" fill="black"/>
<path d="M189.02 112.993C189.143 112.646 189.632 112.646 189.755 112.993L190.827 116.036C190.88 116.185 191.018 116.288 191.176 116.296L194.277 116.439C194.631 116.456 194.781 116.899 194.51 117.127L192.047 119.206C191.932 119.303 191.883 119.458 191.921 119.603L192.755 122.794C192.846 123.145 192.451 123.421 192.155 123.212L189.611 121.426C189.477 121.332 189.298 121.332 189.164 121.426L186.62 123.212C186.324 123.421 185.928 123.145 186.02 122.794L186.854 119.603C186.892 119.458 186.843 119.303 186.728 119.206L184.265 117.127C183.994 116.899 184.144 116.456 184.498 116.439L187.599 116.296C187.757 116.288 187.895 116.185 187.948 116.036L189.02 112.993Z" fill="#E62024"/>
<path d="M207.58 112.928C207.706 112.59 208.184 112.59 208.31 112.928L209.472 116.042C209.526 116.188 209.663 116.288 209.819 116.295L213.134 116.44C213.494 116.456 213.641 116.91 213.359 117.135L210.763 119.204C210.641 119.302 210.588 119.463 210.63 119.614L211.517 122.817C211.613 123.165 211.227 123.446 210.926 123.246L208.16 121.412C208.03 121.325 207.86 121.325 207.73 121.412L204.964 123.246C204.663 123.446 204.277 123.165 204.373 122.817L205.26 119.614C205.302 119.463 205.249 119.302 205.127 119.204L202.531 117.135C202.249 116.91 202.396 116.456 202.756 116.44L206.071 116.295C206.227 116.288 206.364 116.188 206.418 116.042L207.58 112.928Z" fill="#E62024"/>
<path d="M226.135 112.993C226.258 112.646 226.747 112.646 226.87 112.993L227.942 116.036C227.995 116.186 228.133 116.288 228.291 116.296L231.392 116.439C231.746 116.456 231.896 116.899 231.625 117.127L229.162 119.206C229.047 119.303 228.998 119.458 229.036 119.603L229.87 122.794C229.962 123.145 229.566 123.421 229.27 123.212L226.726 121.426C226.592 121.332 226.413 121.332 226.279 121.426L223.736 123.212C223.439 123.421 223.044 123.145 223.135 122.794L223.969 119.603C224.007 119.458 223.958 119.303 223.843 119.206L221.38 117.127C221.109 116.899 221.259 116.456 221.613 116.439L224.714 116.296C224.872 116.288 225.01 116.186 225.063 116.036L226.135 112.993Z" fill="#E62024"/>
<path d="M244.695 112.928C244.822 112.59 245.299 112.59 245.425 112.928L246.587 116.042C246.641 116.188 246.778 116.288 246.934 116.295L250.249 116.44C250.609 116.456 250.756 116.91 250.474 117.135L247.878 119.204C247.756 119.302 247.703 119.463 247.745 119.614L248.632 122.817C248.728 123.165 248.342 123.446 248.042 123.246L245.275 121.412C245.145 121.325 244.975 121.325 244.845 121.412L242.079 123.246C241.778 123.446 241.392 123.165 241.488 122.817L242.375 119.614C242.417 119.463 242.364 119.302 242.242 119.204L239.646 117.135C239.364 116.91 239.511 116.456 239.871 116.44L243.186 116.295C243.342 116.288 243.479 116.188 243.533 116.042L244.695 112.928Z" fill="#E62024"/>
<path d="M263.25 112.993C263.373 112.646 263.862 112.646 263.985 112.993L265.057 116.036C265.11 116.186 265.248 116.288 265.407 116.296L268.507 116.439C268.861 116.456 269.011 116.899 268.74 117.127L266.277 119.206C266.162 119.303 266.113 119.458 266.151 119.603L266.985 122.794C267.077 123.145 266.682 123.421 266.385 123.212L263.841 121.426C263.707 121.332 263.528 121.332 263.394 121.426L260.851 123.212C260.554 123.421 260.159 123.145 260.25 122.794L261.084 119.603C261.122 119.458 261.073 119.303 260.959 119.206L258.495 117.127C258.224 116.899 258.374 116.456 258.728 116.439L261.829 116.296C261.987 116.288 262.125 116.186 262.178 116.036L263.25 112.993Z" fill="#E62024"/>
</g>
<defs>
<clipPath id="clip0_2005_72">
<rect width="454" height="142" fill="white"/>
</clipPath>
</defs>
</svg>
