<svg width="454" height="142" viewBox="0 0 454 142" fill="none" xmlns="http://www.w3.org/2000/svg">
<g clip-path="url(#clip0_20_565)">
<path d="M447.941 113.931V49.5886C447.941 47.7786 446.476 46.309 444.665 46.3088C444.618 46.3088 444.572 46.306 444.527 46.3012H266.99C266.539 46.3012 266.127 46.0671 265.892 45.6937C256.053 35.4056 242.264 29.0149 227 29.0149C211.737 29.015 197.947 35.4056 188.109 45.6937C187.874 46.0669 187.462 46.3012 187.011 46.3012H9.34026C7.52925 46.3013 6.06271 47.7704 6.06271 49.5823C6.0627 49.6135 6.06043 49.6444 6.05826 49.6751V113.931L6.06271 114.1C6.14657 115.759 7.46097 117.091 9.11287 117.202C9.186 117.189 9.26059 117.182 9.33582 117.182H178.817C179.536 117.182 180.118 117.766 180.118 118.485C180.118 119.204 179.536 119.788 178.817 119.788H9.60577C9.51867 119.806 9.42839 119.816 9.33582 119.816C6.19013 119.816 3.62153 117.345 3.46417 114.234L3.45654 113.931V49.5823L3.46353 49.4487C3.46384 49.4457 3.46511 49.4428 3.46544 49.4398C3.54086 46.2544 6.14015 43.6958 9.34026 43.6957H186.419C196.712 33.0332 211.092 26.4095 227 26.4094C242.909 26.4094 257.288 33.0334 267.582 43.6957H444.665C444.722 43.6957 444.778 43.6999 444.833 43.7071C448.003 43.7968 450.543 46.3954 450.543 49.5886V113.931C450.543 117.183 447.91 119.816 444.665 119.816C444.572 119.816 444.482 119.806 444.395 119.788H276.077C275.359 119.788 274.777 119.204 274.777 118.485C274.777 117.766 275.359 117.182 276.077 117.182H444.665C444.74 117.182 444.814 117.19 444.886 117.202C446.593 117.088 447.941 115.668 447.941 113.931Z" fill="#E62024"/>
<path d="M46.1632 109.473L65.7989 78.2939L69.4764 109.542L77.6624 108.223L72.8748 67.1138L71.3492 53.9211L64.2717 65.1711L46.1632 93.988L28.0547 65.1711L20.9788 53.9211L19.4517 67.1138L14.6641 108.223L22.8517 109.542L26.5292 78.2939L46.1632 109.473Z" fill="white"/>
<path d="M139.372 82.4252C139.372 98.1193 126.606 110.896 110.925 110.896C95.2449 110.896 82.479 98.1193 82.479 82.4252C82.479 66.7327 95.2449 53.9543 110.925 53.9543C126.606 53.9543 139.372 66.7327 139.372 82.4252ZM90.8062 82.4252C90.8062 93.5355 99.8263 102.563 110.927 102.563C122.028 102.563 131.048 93.5355 131.048 82.4252C131.048 71.3149 122.028 62.2871 110.927 62.2871C99.8263 62.2871 90.8062 71.3149 90.8062 82.4252Z" fill="white"/>
<path d="M154.887 74.4751L190.966 111.556V55.3798L182.641 56.7685V91.0723L146.562 53.991V109.542L154.887 108.154V74.4751Z" fill="white"/>
<path d="M372.966 55.4131L364.641 56.8019V109.577H395.169L397.944 101.245H372.966V55.4131Z" fill="white"/>
<path d="M418.987 86.5233L409.066 108.119L417.529 109.577L440.771 58.6778L433.21 55.3447L422.872 77.9129L404.554 55.3447L398.173 60.7602L418.987 86.5233Z" fill="white"/>
<path d="M270.957 87.2169V108.049L262.631 109.438V55.2749H277.895C286.707 55.2749 293.853 62.4267 293.853 71.2467C293.853 80.0651 286.707 87.2185 277.895 87.2185L270.957 87.2169ZM270.957 80.273H277.895C282.89 80.273 286.915 76.2448 286.915 71.2451C286.915 66.2455 282.89 62.2172 277.895 62.2172H270.957V80.273Z" fill="white"/>
<path d="M255.637 82.3689C255.637 98.0319 242.896 110.783 227.247 110.783C211.597 110.783 198.856 98.0319 198.856 82.3689C198.856 66.7075 211.597 53.9543 227.247 53.9543C242.896 53.9559 255.637 66.7075 255.637 82.3689ZM207.167 82.3689C207.167 93.4572 216.169 102.467 227.248 102.467C238.327 102.467 247.329 93.4572 247.329 82.3689C247.329 71.2806 238.327 62.2706 227.248 62.2706C216.168 62.2721 207.167 71.2806 207.167 82.3689Z" fill="white"/>
<path d="M357.346 82.4252C357.346 98.1193 344.58 110.896 328.9 110.896C313.219 110.896 300.453 98.1193 300.453 82.4252C300.453 66.7327 313.219 53.9543 328.9 53.9543C344.58 53.9543 357.346 66.7327 357.346 82.4252ZM308.78 82.4252C308.78 93.5355 317.8 102.563 328.901 102.563C340.002 102.563 349.022 93.5355 349.022 82.4252C349.022 71.3149 340.002 62.2871 328.901 62.2871C317.799 62.2886 308.78 71.3149 308.78 82.4252Z" fill="white"/>
<path d="M241.208 32.9767L236.267 22.468L231.018 17.5239L216.195 18.7588L204.151 26.7962L200.445 38.2319L204.768 46.2678L210.945 48.1216L241.208 32.9767Z" fill="white"/>
<path d="M310.187 51.3881C309.966 51.185 309.744 50.9834 309.524 50.7818L300.994 42.7951L297.814 39.8271C297.418 39.2763 296.591 39.0938 296.775 38.1447C296.897 37.9003 296.561 37.778 296.775 37.5939C296.775 36.7369 296.867 35.7877 296.409 35.2068C295.829 34.7481 296.133 33.6466 295.889 32.9117C295.767 32.2086 295.705 31.5039 295.339 30.9849C294.91 30.0977 293.78 29.7612 292.954 29.1787C292.923 28.5359 292.649 28.0772 292.343 27.6804C291.12 26.4868 288.765 26.7313 287.176 27.2217C286.474 27.3741 285.984 28.1089 285.251 27.9851C278.922 22.2332 272.869 16.3273 266.694 10.4833C266.418 10.269 266.328 9.90236 266.234 9.56588C265.898 8.40248 266.6 7.51524 267.365 6.93434C268.741 6.0471 269.994 7.33272 271.401 7.30097C272.623 7.36287 273.664 6.68832 274.122 5.86299C274.154 5.67887 274.184 5.5884 274.274 5.49635C274.182 5.09955 274.396 4.91544 274.366 4.54721H274.396C274.396 3.93615 274.182 3.47586 274.06 2.9267C273.234 1.42681 271.339 0.509421 269.322 0.387208C267.855 0.142782 266.478 0.571321 265.194 0.99986C262.076 2.28548 260.271 4.70276 259.843 8.00727H259.783C259.721 10.6991 260.393 12.8418 261.832 14.4322C267.733 20.1238 273.756 25.7853 279.655 31.5071C280.021 32.242 279.258 32.7927 279.258 33.618H279.228C279.106 34.537 279.411 35.1481 279.533 35.9433C279.655 36.4639 280.115 36.8924 279.961 37.5035C279.961 38.2066 278.86 37.7177 278.83 38.3907C277.822 39.124 277.057 40.0731 276.049 40.8381C275.468 41.2048 275.192 40.5017 274.734 40.4413C271.126 43.7459 266.938 46.6536 262.322 49.2534C262.016 49.3454 261.68 49.62 261.404 49.3153C261.067 48.6423 261.19 47.6313 261.007 46.8678C260.793 46.1346 260.823 45.2473 260.151 44.8489C259.967 44.9712 259.937 45.2156 259.907 45.4918C259.907 45.6759 259.784 45.8282 259.724 45.9822C259.204 47.4821 258.378 48.7661 256.819 49.5311C256.575 49.593 256.329 49.4391 256.237 49.2248C255.963 46.471 255.565 43.8395 254.648 41.5762C253.089 37.4765 250.826 33.8355 247.677 30.8659C247.096 30.0707 246.088 29.5802 245.353 28.8771C245.109 28.5105 244.589 28.3867 244.527 27.8359C245.047 27.3153 245.718 26.8868 246.33 26.4583C248.013 24.8377 249.816 23.3379 250.244 20.8587C250.182 20.6444 250.122 20.4301 250.03 20.1857C249.754 19.7889 249.142 19.4826 248.501 19.635C247.951 19.7572 247.707 20.1238 247.431 20.492C246.392 22.6951 244.557 24.3473 242.478 25.8155C242.234 25.8774 241.928 25.9996 241.714 25.8456C240.766 25.1425 240.033 24.2553 239.024 23.6124C238.749 23.1537 238.26 22.8792 237.894 22.4506C236.639 20.8285 235.173 19.3905 234.042 17.678L233.89 17.3415C231.903 15.0163 230.404 12.2625 229.029 9.50875C228.571 8.52945 228.051 7.61206 226.828 7.21368C223.372 6.32644 219.888 7.36605 216.739 8.13107C209.921 10.5785 204.113 14.4957 199.832 19.0858C198.334 20.646 197.051 22.3602 195.919 24.1648C195.307 24.7774 195.124 25.6329 194.604 26.3075C194.33 27.3169 193.748 28.082 193.503 29.1216C193.044 30.0707 192.983 32.1197 193.534 33.0387C197.049 35.9464 200.139 39.1891 202.554 42.8602C202.738 43.0443 202.798 43.4411 203.196 43.2887C203.686 42.9523 204.052 42.4618 204.389 41.973C205.825 38.6367 207.904 35.7306 210.38 33.1292C215.364 27.8359 222.608 22.5427 231.354 21.411C232.21 21.4412 233.127 21.1666 233.891 21.5031C234.075 21.6872 234.288 21.8999 234.135 22.176C232.393 22.4506 230.62 22.6649 228.999 23.2458V23.368C230.498 24.8679 231.964 26.3678 233.555 27.774L233.951 27.9582C235.48 27.774 236.919 27.3455 238.293 26.7963H238.814C239.058 27.0106 239.364 27.1011 239.426 27.4074C239.334 27.5296 239.304 27.6836 239.181 27.774C237.286 28.8454 235.146 29.458 232.975 29.8866C228.084 30.804 223.406 32.334 218.85 33.9561C212.674 36.3416 207.752 39.862 204.114 44.2379C202.617 46.0441 201.731 48.2154 201.149 50.6945H201.119C201.087 50.9294 201.063 51.1628 201.046 51.3929H283.664C283.905 51.058 284.325 50.8612 284.552 50.5104C285.316 49.7756 286.233 49.0423 286.753 48.2455C286.599 47.7551 287.057 47.6027 287.211 47.2662C288.22 46.3171 289.136 45.2156 290.787 44.787C291.582 44.5426 292.438 43.1348 293.294 44.2363C295.805 46.6917 298.466 49.0185 301.078 51.3913H310.187V51.3881Z" fill="#00C0F3"/>
<path d="M181.418 51.3883C181.112 51.1978 180.808 51.0057 180.506 50.8121L180.048 50.6582C179.16 51.6993 178.427 50.1693 177.633 49.9249C177.083 49.6487 176.624 48.8837 175.83 49.19C175.402 49.098 175.402 48.6694 175.127 48.4869C174.515 47.3854 173.537 46.5902 172.896 45.5189C172.804 44.5396 172.498 43.6222 172.682 42.5508H172.712C172.65 42.1223 172.834 41.5414 172.56 41.2652C172.254 40.9287 171.643 40.989 171.183 41.0509C168.676 41.4477 167.545 43.346 167.055 45.4268H167.025L166.994 45.9474H166.963L166.932 46.8346H166.87C166.962 47.0489 166.778 47.1092 166.656 47.2013C163.843 48.3329 160.939 49.5868 158.37 51.0867C158.218 51.1867 158.065 51.2851 157.912 51.3867L181.418 51.3883Z" fill="#00C0F3"/>
<path d="M301.073 51.3882C302.692 52.8579 304.292 54.3451 305.826 55.891C309.098 58.7051 312.123 61.6446 315.243 64.5808C315.793 64.9173 316.099 65.8046 317.047 65.4681C318.79 64.765 320.013 63.6317 320.411 61.9191H320.441C320.625 60.97 319.921 60.6954 319.524 60.1447C316.383 57.2576 313.321 54.2642 310.19 51.3882H301.073Z" fill="#00C0F3"/>
<path d="M157.915 51.3882C154.391 53.7023 150.507 56.3465 149.629 60.451H149.597L149.567 61.0621H149.505C149.535 61.6747 149.779 62.2858 149.597 62.8984C149.567 62.9603 149.629 63.0825 149.505 63.0825C149.627 63.3571 149.321 63.4809 149.473 63.7254C149.443 65.011 151.278 64.9189 151.522 66.0204C152.194 66.6632 153.235 66.1442 153.967 65.8982C158.462 63.2667 163.446 61.4303 168.827 60.7272C169.835 60.6351 171.058 60.5129 172.036 60.8192C172.77 61.5827 173.993 61.981 174.666 62.808C174.635 63.5111 174.451 64.0936 174.269 64.6745C174.269 64.8586 174.147 65.011 174.117 65.1951C174.055 65.4395 174.147 65.6236 174.331 65.7458C181.27 70.0296 189.372 72.4168 197.688 73.9151C203.467 74.9547 209.52 75.261 215.604 75.5673L215.91 75.7213L215.818 75.8736C214.961 76.1482 214.015 76.2101 213.188 76.5165C212.982 81.5431 211.799 91.6312 211.135 93.9342C214.75 99.0513 220.313 102.392 227.052 102.392C231.787 102.392 236.138 100.742 239.561 97.9863L239.541 97.9672C243.363 92.0613 251.005 77.9084 252.26 69.7249C252.322 69.4186 252.382 69.0821 252.688 68.9916L258.1 67.4616C268.067 64.4317 277.238 59.2305 283.903 52.9278C283.935 52.4992 283.629 52.3468 283.475 52.0088C283.466 51.7485 283.54 51.5533 283.657 51.3914H201.039C200.729 55.2688 202.183 58.2226 205.27 59.8114C206.371 60.4224 207.654 60.5446 208.908 60.8208C209.122 61.1255 209.428 61.3716 209.398 61.8303C209.244 61.8906 209.062 61.9826 208.878 61.8906C199.094 59.9431 189.593 56.4624 181.418 51.3898H157.915V51.3882Z" fill="#00C0F3"/>
<path d="M272.408 3.84248C272.56 4.17897 272.56 4.54561 272.56 4.97414C272.285 5.46458 271.551 5.61695 270.941 5.5249C269.534 4.51545 267.333 4.48529 265.866 5.43284C265.5 5.89154 264.826 6.19786 264.704 6.84067C264.612 6.99304 264.459 7.0851 264.49 7.36127C264.428 7.51364 264.306 7.63585 264.306 7.81996C264.122 8.55483 264.092 9.96266 264.612 10.5737C264.796 11.0943 265.254 11.3689 265.468 11.8593C266.569 13.2053 267.913 14.3068 269.23 15.5003L271.859 17.9795C272.501 18.7128 273.296 19.4477 274.06 20.1206C277.087 23.1506 280.327 25.9964 283.354 29.0549C283.538 29.6675 282.498 29.6056 282.1 29.912C281.856 30.0643 281.58 30.1865 281.306 30.1262C280.541 29.6374 279.961 28.9644 279.319 28.3819C274.122 23.2712 268.679 18.4065 263.451 13.3576C262.32 12.3482 261.832 10.9102 261.618 9.25795L261.586 8.06439H261.618L261.648 7.57395H261.678C262.26 5.09477 263.665 3.04572 266.448 2.31085C268.617 1.91564 271.093 2.37434 272.408 3.84248Z" fill="white" stroke="white" stroke-width="0.582928" stroke-miterlimit="2" stroke-linecap="square"/>
<path d="M220.1 10.1152C221.719 14.0022 224.104 17.367 226.611 20.6414C226.733 20.7334 226.641 20.9779 226.673 21.162C224.99 21.8048 223.217 22.3857 221.566 23.1507C218.907 24.4062 216.676 25.9045 214.443 27.4647C213.556 27.4345 213.434 26.5473 212.914 26.087C210.591 23.2412 207.9 20.6096 205.272 17.9797C205.24 17.7654 205.18 17.6734 205.18 17.4289C206.769 15.6846 209.064 14.4609 211.203 13.115C213.68 11.7071 216.37 10.4533 219.213 9.68824C219.67 9.56444 219.946 9.81045 220.1 10.1152Z" fill="black"/>
<path d="M291.547 29.209C291.883 29.6058 291.823 30.3406 292.037 30.7993C292.557 31.0739 293.322 30.9834 293.78 31.4104C294.422 31.931 294.483 32.7881 294.636 33.6451C294.422 33.8293 294.759 33.9197 294.636 34.1657V34.7165H294.605C294.513 34.8689 294.636 35.1133 294.483 35.2053C294.911 35.8482 295.187 36.5529 295.065 37.5623H295.033C294.849 39.5209 293.504 40.5907 291.793 41.4477C291.397 41.4477 290.967 41.7541 290.662 41.4477C290.754 41.0509 291.059 40.7748 291.244 40.4684C291.825 39.6114 292.223 38.5416 292.467 37.3782C292.435 37.256 292.435 37.1338 292.283 37.0719C291.427 37.5925 291.152 38.5718 290.478 39.2447C289.836 39.8875 289.286 40.6224 288.277 40.989C287.819 41.0811 287.391 40.897 287.177 40.6224C286.993 40.3462 287.025 40.0097 287.025 39.6431C287.727 38.8479 288.644 38.1448 289.104 37.1338C289.408 36.8274 289.592 36.4307 289.684 35.9402C290.05 35.6037 290.112 35.0831 290.172 34.5324C290.142 34.4403 290.02 34.288 289.898 34.38C288.889 35.4498 288.063 36.583 286.718 37.348C286.444 37.4099 286.106 37.3798 285.954 37.1639C285.832 36.8274 285.618 36.337 285.74 35.9704V35.6339C285.8 35.4815 285.922 35.3276 285.922 35.1434C286.044 34.6228 286.412 34.2864 286.595 33.8277C286.473 33.5515 286.779 33.6134 286.839 33.4912C287.572 32.6341 288.52 31.9611 288.796 30.7676H288.858C288.92 30.1248 288.644 29.574 288.368 29.0852C288.306 28.5043 289.102 28.6265 289.468 28.4122C290.355 28.1392 291.149 28.6582 291.547 29.209Z" fill="white" stroke="white" stroke-width="0.582928" stroke-miterlimit="2" stroke-linecap="square"/>
<path d="M196.864 29.239C199.891 31.7182 202.367 34.5624 204.66 37.5622C204.722 37.7145 204.752 37.8367 204.722 38.0209C204.66 38.205 204.478 38.3875 204.448 38.6018C204.203 38.9081 204.05 39.3049 203.805 39.5811C203.409 39.735 203.255 39.3366 203.041 39.1843C200.962 36.4607 198.486 33.9831 195.917 31.6261C195.643 31.4721 195.795 31.0134 195.764 30.7071H195.795C195.857 30.1564 196.101 29.85 196.254 29.3914C196.344 29.239 196.648 29.0565 196.864 29.239Z" fill="black"/>
<path d="M243.395 29.8834C243.731 30.1278 244.128 30.3421 244.19 30.8008C243.517 31.2595 242.355 31.4436 242.601 32.5752C242.723 32.7895 242.937 32.9419 243.213 33.0339C243.671 33.0657 243.945 32.6673 244.343 32.5133C246.759 32.1149 247.859 34.1656 248.899 35.4512C249.938 37.0431 251.009 38.5414 251.681 40.408C252.077 41.0809 252.323 41.846 252.567 42.6427C252.996 43.3458 253.088 44.3251 253.332 45.1521C253.454 45.979 253.636 46.7742 253.728 47.6614C253.606 48.5486 254.064 49.0692 253.912 50.0168C253.698 50.5374 252.994 50.231 252.506 50.2612C250.488 49.8327 248.562 49.1597 246.299 49.3438C245.718 48.9454 245.779 48.1502 245.382 47.6598C244.832 46.8329 244.221 45.9758 243.059 45.5489C242.386 45.5171 241.712 45.7314 241.072 45.9155C241.042 46.0076 240.98 46.2218 241.104 46.252C242.172 47.1392 243.427 47.9042 243.335 49.6184C243.243 49.6184 243.243 49.7105 243.243 49.7708C243.181 50.658 241.958 50.7802 241.378 51.3008C241.316 51.7611 241.5 52.0658 241.684 52.342C242.54 53.2292 243.733 52.4039 244.619 52.0976C245.964 50.4755 248.991 50.8421 250.886 51.4548C253.698 52.7705 257.184 51.7912 259.233 49.985C259.447 49.8025 259.507 50.1072 259.539 50.2295V50.5961H259.507C259.569 51.0865 259.233 51.2389 259.263 51.6674C259.201 51.8516 259.079 52.0039 259.079 52.188C257.794 55.5227 255.135 58.2765 250.885 59.0415C248.928 59.2859 246.971 59.0113 245.352 58.1241C245.016 58.0622 245.046 58.3384 244.892 58.4907C243.701 61.0921 241.652 63.1412 238.809 64.5792C235.263 66.2314 229.852 65.9251 227.131 63.3237C227.069 63.1094 227.223 63.0491 227.283 62.9269C230.065 63.3555 232.572 61.7953 233.642 59.897C234.315 58.9177 234.743 57.7543 235.567 56.8671C236.79 55.6433 238.259 54.3577 240.246 53.8387C240.52 53.6848 240.642 53.4721 240.642 53.1038C240.52 52.7975 240.398 52.5229 240.031 52.4007C237.066 52.2468 235.139 54.3593 233.672 56.0116C233.306 56.5322 232.97 57.0512 232.664 57.6321V57.786C232.602 57.9701 232.42 58.1225 232.389 58.3368C232.267 58.3971 232.297 58.5193 232.237 58.6415C231.747 59.8652 230.524 60.7223 229.058 61.089C226.734 61.5175 224.411 60.2017 223.279 58.7336C222.943 58.4273 222.943 57.7543 222.331 57.7844C222.269 58.978 222.851 59.8351 223.217 60.8144C224.684 64.5474 228.966 67.2694 233.856 67.4234C236.455 67.4853 238.809 66.8425 240.858 65.6489C242.477 64.9141 243.669 63.8427 244.71 62.6492C245.472 62.1603 246.543 63.0475 246.941 62.0682C247.337 61.7318 247.429 61.089 248.041 60.8747C249.234 60.9064 250.519 60.9064 251.679 60.7525C251.893 60.8144 251.924 60.9969 251.893 61.2429H251.862C249.447 66.6282 243.209 71.0644 235.72 70.6375C229.054 70.4533 223.306 66.7822 219.516 62.865C219.18 62.4984 219.18 61.8857 218.996 61.3969C218.475 60.8461 218.293 61.7334 217.865 61.8556C216.428 62.8047 213.983 62.7126 212.546 61.6715C211.323 60.662 210.163 59.4986 210.559 57.5099C210.651 57.5416 210.621 57.448 210.621 57.3877C210.895 56.4084 211.783 55.7671 212.914 55.4608C213.25 55.3989 213.708 55.3084 213.832 55.0021C213.832 54.4514 213.342 54.2069 212.884 54.0228C212.119 53.5641 210.897 54.6958 210.805 53.4721C210.683 53.1356 210.621 52.7372 210.591 52.2785L210.559 51.4833H210.591L210.621 50.9929H210.651C210.895 50.0136 211.141 49.0661 211.537 48.2391C212.272 46.8932 213.158 45.6377 214.137 44.4442C215.91 42.5173 218.049 40.8032 220.344 39.2128C222.331 37.7748 224.838 36.6114 227.191 35.602C224.806 35.5401 222.819 36.7035 220.772 37.5606C214.749 40.5588 209.856 44.322 207.289 49.7692C206.342 51.4214 206.036 54.664 207.259 56.3179L207.871 57.2051C207.993 57.3289 207.933 57.6035 207.933 57.8178C207.352 58.1844 206.679 57.6337 206.16 57.3591C204.111 56.1036 203.439 53.5038 203.959 50.8421C204.967 47.0789 207.444 44.3553 210.348 41.938C214.322 38.5113 219.917 35.7575 225.482 34.1354C230.068 32.3911 235.203 32.0245 239.759 30.158C240.645 29.9437 241.348 29.1787 242.328 29.239L243.395 29.8834Z" fill="white" stroke="white" stroke-width="0.582928" stroke-miterlimit="2" stroke-linecap="square"/>
<path d="M216.582 31.1675C216.948 31.8405 217.346 32.4833 217.622 33.2182L217.53 33.4324C213.678 34.9625 210.377 37.1036 207.411 39.3383H207.351C207.351 39.0019 207.656 38.8178 207.779 38.5432C209.828 35.3307 212.518 32.6071 215.637 30.1279C216.154 30.3105 216.278 30.8311 216.582 31.1675Z" fill="#00C0F3" stroke="white" stroke-width="0.349757" stroke-miterlimit="2" stroke-linecap="square"/>
<path d="M287.053 30.4945C287.115 30.8929 286.901 31.1373 286.717 31.3818C286.166 31.9627 285.524 32.4531 284.974 33.0658V33.2499C284.912 33.4324 284.882 33.6467 284.73 33.7705C283.903 34.9021 283.873 37.167 284.608 38.4209C284.912 38.8177 284.974 39.4002 285.34 39.7668C285.462 41.1144 286.289 42.0619 287.694 42.4285C288.122 42.8269 288.55 43.2237 288.978 43.6221C288.978 43.8983 288.734 43.9586 288.55 44.1126C287.571 44.449 286.867 45.0918 286.287 45.7648C286.043 45.887 285.737 46.1616 285.461 45.9489C284.3 44.603 283.474 43.0412 282.311 41.6953C281.945 41.0826 281.485 40.6239 281.15 40.0113V39.8589C281.303 39.7049 281.334 39.4304 281.517 39.278C281.823 38.7574 282.037 38.1765 281.945 37.3496C281.425 36.5226 280.814 35.8497 280.905 34.5656L280.875 33.9228H280.905C281.211 32.6674 282.067 31.9341 283.076 31.1992C284.144 30.4342 285.583 30.4342 286.928 30.3723L287.053 30.4945Z" fill="white" stroke="white" stroke-width="0.582928" stroke-miterlimit="2" stroke-linecap="square"/>
<path d="M229.086 37.348C229.239 37.4099 229.086 37.6543 229.239 37.7146C229.209 38.021 229.025 38.2051 228.872 38.4178C228.108 38.2336 226.917 37.9892 226.335 38.632C225.509 39.3669 224.898 40.2541 224.654 41.3858C224.562 41.3858 224.622 41.508 224.592 41.5699C224.622 42.0286 224.256 42.3032 224.438 42.7317C224.47 42.8238 224.377 43.0063 224.53 43.038C224.346 43.0682 224.561 43.4047 224.286 43.2825C223.98 42.946 223.858 42.5174 223.89 41.9667C223.798 41.6921 223.92 41.2636 223.768 40.9874C223.92 40.8049 223.829 40.4668 223.86 40.2224H223.891C224.044 38.9066 224.748 38.0495 225.572 37.2242C226.489 36.5227 228.446 36.2782 229.086 37.348Z" fill="#00C0F3" stroke="white" stroke-width="0.233171" stroke-miterlimit="2" stroke-linecap="square"/>
<path d="M248.744 39.0002C248.988 39.2145 248.866 39.6732 248.898 40.0414C248.622 40.408 248.316 40.7445 247.828 40.9286C247.368 41.0207 246.879 40.9588 246.573 40.7144C246.297 40.3477 245.961 40.0414 245.993 39.4589H246.025C246.055 38.9383 246.361 38.6637 246.727 38.3891C247.033 38.2352 247.461 38.0828 247.828 38.2352C248.226 38.3891 248.532 38.7256 248.744 39.0002Z" fill="#00C0F3" stroke="white" stroke-width="0.349757" stroke-miterlimit="2" stroke-linecap="square"/>
<path d="M296.286 41.0509C301.176 45.4267 305.854 49.9851 310.717 54.3911C313.01 56.7164 315.577 58.8892 317.87 61.2144C317.992 61.5509 318.482 61.643 318.298 62.2239C318.022 62.6826 317.748 63.2032 317.136 63.4174C316.586 63.4174 316.28 63.0191 315.975 62.7445C313.926 60.8478 312.031 58.9495 310.014 56.9608C308.119 55.2768 306.314 53.5944 304.511 51.8802C301.178 48.8519 297.908 45.7616 294.666 42.6698C294.178 42.1809 294.973 41.9667 295.095 41.5984C295.491 41.4175 295.643 40.7144 296.286 41.0509Z" fill="white" stroke="white" stroke-width="0.582928" stroke-miterlimit="2" stroke-linecap="square"/>
<path d="M279.776 42.1221C280.694 43.4077 281.641 44.6616 282.557 45.9472C282.893 46.0694 282.893 46.3758 282.985 46.6504C283.26 47.263 283.872 47.6296 283.842 48.455C283.506 48.9153 283.109 49.374 282.557 49.7104C281.641 49.8326 281.549 48.8534 281.09 48.455C279.836 46.5281 278.431 44.7521 277.086 42.9475C276.964 42.8252 277.054 42.5808 277.024 42.3967C277.513 41.9682 277.973 41.4777 278.583 41.1111C279.257 41.1127 279.471 41.7237 279.776 42.1221Z" fill="white" stroke="white" stroke-width="0.582928" stroke-miterlimit="2" stroke-linecap="square"/>
<path d="M170.845 43.6823C170.877 43.7442 170.815 43.8347 170.877 43.8665C171.029 45.06 171.335 46.0996 171.671 47.2027C172.558 48.6105 173.567 49.9565 174.179 51.5786C174.24 51.8532 174.393 52.0674 174.423 52.3436C174.331 52.3436 174.361 52.4357 174.361 52.496C173.628 54.3022 172.864 56.0449 172.222 57.8813L171.855 58.1257C166.537 58.2178 161.889 59.9621 157.394 62.0111C155.866 62.7142 154.583 63.6015 153.114 64.3665C152.502 64.3062 152.106 63.8459 151.585 63.5713C151.432 63.419 151.341 63.2047 151.341 62.9285C151.097 61.8572 151.311 60.6033 151.463 59.5621C151.708 59.378 151.769 59.0114 151.953 58.7352C153.328 57.1131 155.193 55.7973 157.028 54.4514C159.687 52.5848 162.929 50.8723 166.23 49.7692C166.567 49.7692 166.659 50.0136 166.721 50.2596C166.659 50.5342 166.812 50.6263 166.812 50.8723C167.119 51.9738 167.607 52.8912 168.341 53.6562C168.463 53.8705 168.769 53.8705 168.983 53.8086C169.228 53.6562 169.258 53.38 169.258 53.0435C169.104 53.0118 169.226 52.8293 169.136 52.7372C168.493 51.5135 168.433 49.3407 168.861 47.9646C168.708 46.2203 169.106 44.66 170.176 43.6808C170.295 43.53 170.815 43.376 170.845 43.6823Z" fill="white" stroke="white" stroke-width="0.582928" stroke-miterlimit="2" stroke-linecap="square"/>
<path d="M232.48 46.1313L232.542 46.9582C232.419 47.0503 232.419 47.1424 232.389 47.2947C232.145 47.6614 231.809 47.9978 231.289 48.1216C230.494 48.2756 229.882 47.8153 229.364 47.4487C229.242 46.9884 228.935 46.7138 229.058 46.1329C229.15 45.9488 229.211 45.7964 229.272 45.6123C229.546 45.1838 230.098 44.9076 230.708 44.8774C231.593 44.8759 232.266 45.4568 232.48 46.1313Z" fill="#00C0F3" stroke="white" stroke-width="0.349757" stroke-miterlimit="2" stroke-linecap="square"/>
<path d="M216.368 48.609C215.542 49.3121 214.411 49.7708 213.524 50.4136C212.974 50.5358 212.944 50.0168 212.698 49.8026V49.6486C213.555 49.0058 214.533 48.3328 215.634 47.9043C216.033 47.9964 216.216 48.3646 216.368 48.609Z" fill="#00C0F3" stroke="white" stroke-width="0.233171" stroke-miterlimit="2" stroke-linecap="square"/>
<path d="M217.438 50.6295C216.154 51.2105 215.023 52.0374 213.831 52.6802C213.525 52.4961 213.25 52.2516 213.188 51.885C214.075 50.9676 215.42 50.355 216.612 49.7439C217.102 49.8328 217.346 50.201 217.438 50.6295Z" fill="#00C0F3" stroke="white" stroke-width="0.233171" stroke-miterlimit="2" stroke-linecap="square"/>
<path d="M178.429 53.199V53.5355H178.397C177.297 55.7084 176.41 58.0034 175.555 60.3588C175.005 60.6651 174.545 60.1144 174.179 59.9001C173.935 59.7478 174.057 59.3494 174.027 59.0732C174.088 58.9208 174.211 58.7669 174.211 58.6145C175.037 56.4718 175.831 54.391 176.81 52.4023C177.39 52.0039 177.91 52.7388 178.369 52.953L178.429 53.199Z" fill="white" stroke="white" stroke-width="0.582928" stroke-miterlimit="2" stroke-linecap="square"/>
<path d="M159.718 54.7594C159.81 54.9435 159.779 55.1562 159.779 55.372C158.863 56.1053 157.731 56.718 156.784 57.4227C155.347 58.494 153.94 59.6559 152.442 60.6653C154.247 58.3401 156.722 56.4418 159.169 54.5451C159.381 54.2705 159.626 54.6054 159.718 54.7594Z" fill="black" stroke="white" stroke-width="0.233171" stroke-miterlimit="2" stroke-linecap="square"/>
<path d="M160.788 57.7574C161.124 58.6446 160.146 58.6446 159.718 58.9811C157.517 59.9604 155.713 61.1841 153.665 62.2555V62.0111C155.56 60.2064 157.761 58.6446 160.3 57.2987C160.634 57.2067 160.696 57.5749 160.788 57.7574Z" fill="black" stroke="white" stroke-width="0.233171" stroke-miterlimit="2" stroke-linecap="square"/>
<path d="M221.016 89.06H220.986C220.894 89.5806 221.138 89.825 221.26 90.1917C222.483 91.3852 223.645 92.609 225.143 93.6184C225.449 93.7708 225.785 94.0771 226.243 94.047C228.26 93.1597 230.247 92.1185 232.144 91.0789H232.54C234.191 92.3344 235.568 93.8025 237.431 94.9342C237.645 95.0866 237.981 95.0866 238.165 94.9342C239.572 92.9153 240.856 90.8027 242.017 88.6299C243.058 86.611 244.28 84.6826 245.135 82.5415C245.289 82.4494 245.319 82.2351 245.379 82.0828C245.593 81.4701 245.929 81.0114 246.144 80.3686H246.175C246.267 80.1543 246.267 79.848 246.45 79.6957C246.94 78.3497 247.488 77.0641 247.916 75.6579C248.681 73.6691 249.201 71.4661 249.721 69.2933H249.751C249.721 68.9568 249.873 68.2537 249.355 68.4981C246.878 70.2726 243.942 72.0169 240.611 72.5375C234.19 73.6993 227.892 72.047 223.032 68.7727H222.757C222.391 68.925 222.478 69.4155 222.543 69.9662C222.957 75.4595 223.186 79.2084 221.016 89.06Z" fill="white" stroke="white" stroke-width="0.582928" stroke-miterlimit="2" stroke-linecap="square"/>
<path d="M234.256 81.038C233.919 82.0279 234.196 83.0178 234.874 83.249C235.552 83.4802 236.375 82.8651 236.712 81.8752C237.049 80.8853 236.772 79.8954 236.094 79.6642C235.416 79.433 234.593 80.0481 234.256 81.038Z" fill="#00C0F3" stroke="white" stroke-width="0.349757"/>
<path d="M232.04 86.0988C231.703 87.0888 231.98 88.0786 232.658 88.3097C233.337 88.5407 234.159 87.9254 234.496 86.9354C234.833 85.9454 234.556 84.9555 233.877 84.7245C233.199 84.4935 232.376 85.1087 232.04 86.0988Z" fill="#00C0F3" stroke="white" stroke-width="0.349757"/>
<path d="M229.683 73.012L228.536 80.0496L237.25 76.1483L243.289 80.202L246.345 71.8645L244.282 72.7819L242.599 77.372L237.479 74.1596L231.059 76.9895L231.365 73.6231L229.683 73.012Z" fill="#00C0F3" stroke="white" stroke-width="0.349757"/>
<path d="M310.187 51.3881C309.966 51.185 309.744 50.9834 309.524 50.7818L300.994 42.7951L297.814 39.8271C297.418 39.2763 296.591 39.0938 296.775 38.1447C296.897 37.9003 296.561 37.778 296.775 37.5939C296.775 36.7369 296.867 35.7877 296.409 35.2068C295.829 34.7481 296.133 33.6466 295.889 32.9117C295.767 32.2086 295.705 31.5039 295.339 30.9849C294.91 30.0977 293.78 29.7612 292.954 29.1787C292.923 28.5359 292.649 28.0772 292.343 27.6804C291.12 26.4868 288.765 26.7313 287.176 27.2217C286.474 27.3741 285.984 28.1089 285.251 27.9851C278.922 22.2332 272.869 16.3273 266.694 10.4833C266.418 10.269 266.328 9.90236 266.234 9.56588C265.898 8.40248 266.6 7.51524 267.365 6.93434C268.741 6.0471 269.994 7.33272 271.401 7.30097C272.623 7.36287 273.664 6.68832 274.122 5.86299C274.154 5.67887 274.184 5.5884 274.274 5.49635C274.182 5.09955 274.396 4.91544 274.366 4.54721H274.396C274.396 3.93615 274.182 3.47586 274.06 2.9267C273.234 1.42681 271.339 0.509421 269.322 0.387208C267.855 0.142782 266.478 0.571321 265.194 0.99986C262.076 2.28548 260.271 4.70276 259.843 8.00727H259.783C259.721 10.6991 260.393 12.8418 261.832 14.4322C267.733 20.1238 273.756 25.7853 279.655 31.5071C280.021 32.242 279.258 32.7927 279.258 33.618H279.228C279.106 34.537 279.411 35.1481 279.533 35.9433C279.655 36.4639 280.115 36.8924 279.961 37.5035C279.961 38.2066 278.86 37.7177 278.83 38.3907C277.822 39.124 277.057 40.0731 276.049 40.8381C275.468 41.2048 275.192 40.5017 274.734 40.4413C271.126 43.7459 266.938 46.6536 262.322 49.2534C262.016 49.3454 261.68 49.62 261.404 49.3153C261.067 48.6423 261.19 47.6313 261.007 46.8678C260.793 46.1346 260.823 45.2473 260.151 44.8489C259.967 44.9712 259.937 45.2156 259.907 45.4918C259.907 45.6759 259.784 45.8282 259.724 45.9822C259.204 47.4821 258.378 48.7661 256.819 49.5311C256.575 49.593 256.329 49.4391 256.237 49.2248C255.963 46.471 255.565 43.8395 254.648 41.5762C253.089 37.4765 250.826 33.8355 247.677 30.8659C247.096 30.0707 246.088 29.5802 245.353 28.8771C245.109 28.5105 244.589 28.3867 244.527 27.8359C245.047 27.3153 245.718 26.8868 246.33 26.4583C248.013 24.8377 249.816 23.3379 250.244 20.8587C250.182 20.6444 250.122 20.4301 250.03 20.1857C249.754 19.7889 249.142 19.4826 248.501 19.635C247.951 19.7572 247.707 20.1238 247.431 20.492C246.392 22.6951 244.557 24.3473 242.478 25.8155C242.234 25.8774 241.928 25.9996 241.714 25.8456C240.766 25.1425 240.033 24.2553 239.024 23.6124C238.749 23.1537 238.26 22.8792 237.894 22.4506C236.639 20.8285 235.173 19.3905 234.042 17.678L233.89 17.3415C231.903 15.0163 230.404 12.2625 229.029 9.50875C228.571 8.52945 228.051 7.61206 226.828 7.21368C223.372 6.32644 219.888 7.36605 216.739 8.13107C209.921 10.5785 204.113 14.4957 199.832 19.0858C198.334 20.646 197.051 22.3602 195.919 24.1648C195.307 24.7774 195.124 25.6329 194.604 26.3075C194.33 27.3169 193.748 28.082 193.503 29.1216C193.044 30.0707 192.983 32.1197 193.534 33.0387C197.049 35.9464 200.139 39.1891 202.554 42.8602C202.738 43.0443 202.798 43.4411 203.196 43.2887C203.686 42.9523 204.052 42.4618 204.389 41.973C205.825 38.6367 207.904 35.7306 210.38 33.1292C215.364 27.8359 222.608 22.5427 231.354 21.411C232.21 21.4412 233.127 21.1666 233.891 21.5031C234.075 21.6872 234.288 21.8999 234.135 22.176C232.393 22.4506 230.62 22.6649 228.999 23.2458V23.368C230.498 24.8679 231.964 26.3678 233.555 27.774L233.951 27.9582C235.48 27.774 236.919 27.3455 238.293 26.7963H238.814C239.058 27.0106 239.364 27.1011 239.426 27.4074C239.334 27.5296 239.304 27.6836 239.181 27.774C237.286 28.8454 235.146 29.458 232.975 29.8866C228.084 30.804 223.406 32.334 218.85 33.9561C212.674 36.3416 207.752 39.862 204.114 44.2379C202.617 46.0441 201.731 48.2154 201.149 50.6945H201.119C201.087 50.9294 201.063 51.1628 201.046 51.3929H283.664C283.905 51.058 284.325 50.8612 284.552 50.5104C285.316 49.7756 286.233 49.0423 286.753 48.2455C286.599 47.7551 287.057 47.6027 287.211 47.2662C288.22 46.3171 289.136 45.2156 290.787 44.787C291.582 44.5426 292.438 43.1348 293.294 44.2363C295.805 46.6917 298.466 49.0185 301.078 51.3913H310.187V51.3881Z" fill="black"/>
<path d="M181.418 51.388C181.112 51.1976 180.808 51.0055 180.506 50.8119L180.048 50.6579C179.16 51.6991 178.427 50.1691 177.633 49.9246C177.083 49.6485 176.624 48.8834 175.83 49.1898C175.402 49.0977 175.402 48.6692 175.127 48.4866C174.515 47.3851 173.537 46.59 172.896 45.5186C172.804 44.5393 172.498 43.6219 172.682 42.5506H172.712C172.65 42.122 172.834 41.5411 172.56 41.265C172.254 40.9285 171.643 40.9888 171.183 41.0507C168.676 41.4475 167.545 43.3458 167.055 45.4266H167.025L166.994 45.9472H166.963L166.932 46.8344H166.87C166.962 47.0487 166.778 47.109 166.656 47.201C163.843 48.3327 160.939 49.5866 158.37 51.0865C158.218 51.1864 158.065 51.2848 157.912 51.3864L181.418 51.388Z" fill="black"/>
<path d="M301.073 51.3882C302.692 52.8579 304.292 54.3451 305.826 55.891C309.098 58.7051 312.123 61.6446 315.243 64.5808C315.793 64.9173 316.099 65.8046 317.047 65.4681C318.79 64.765 320.013 63.6317 320.411 61.9191H320.441C320.625 60.97 319.921 60.6954 319.524 60.1447C316.383 57.2576 313.321 54.2642 310.19 51.3882H301.073Z" fill="black"/>
<path d="M157.915 51.3882C154.391 53.7023 150.507 56.3465 149.629 60.451H149.597L149.567 61.0621H149.505C149.535 61.6747 149.779 62.2858 149.597 62.8984C149.567 62.9603 149.629 63.0825 149.505 63.0825C149.627 63.3571 149.321 63.4809 149.473 63.7254C149.443 65.011 151.278 64.9189 151.522 66.0204C152.194 66.6632 153.235 66.1442 153.967 65.8982C158.462 63.2667 163.446 61.4303 168.827 60.7272C169.835 60.6351 171.058 60.5129 172.036 60.8192C172.77 61.5827 173.993 61.981 174.666 62.808C174.635 63.5111 174.451 64.0936 174.269 64.6745C174.269 64.8586 174.147 65.011 174.117 65.1951C174.055 65.4395 174.147 65.6236 174.331 65.7458C181.27 70.0296 189.372 72.4168 197.688 73.9151C203.467 74.9547 209.52 75.261 215.604 75.5673L215.91 75.7213L215.818 75.8736C214.961 76.1482 214.015 76.2101 213.188 76.5165C212.982 81.5431 211.799 91.6312 211.135 93.9342C214.75 99.0513 220.313 102.392 227.052 102.392C231.787 102.392 236.138 100.742 239.561 97.9863L239.541 97.9672C243.363 92.0613 251.005 77.9084 252.26 69.7249C252.322 69.4186 252.382 69.0821 252.688 68.9916L258.1 67.4616C268.067 64.4317 277.238 59.2305 283.903 52.9278C283.935 52.4992 283.629 52.3468 283.475 52.0088C283.466 51.7485 283.54 51.5533 283.657 51.3914H201.039C200.729 55.2688 202.183 58.2226 205.27 59.8114C206.371 60.4224 207.654 60.5446 208.908 60.8208C209.122 61.1255 209.428 61.3716 209.398 61.8303C209.244 61.8906 209.062 61.9826 208.878 61.8906C199.094 59.9431 189.593 56.4624 181.418 51.3898H157.915V51.3882Z" fill="black"/>
<path d="M239.543 97.9655C243.365 92.0596 251.007 77.9067 252.261 69.7231C252.323 69.4168 252.384 69.0803 252.69 68.9899L258.102 67.4598C268.069 64.4299 277.24 59.2287 283.905 52.926C283.937 52.4975 283.631 52.3451 283.477 52.007C283.445 51.2118 284.209 51.0277 284.547 50.5087C285.312 49.7738 286.228 49.0406 286.748 48.2438C286.595 47.7534 287.053 47.601 287.207 47.2645C288.215 46.3154 289.132 45.2139 290.783 44.7853C291.577 44.5409 292.434 43.1331 293.29 44.2346C297.356 48.2121 301.818 51.8531 305.824 55.8924C309.096 58.7065 312.121 61.646 315.241 64.5823C315.791 64.9187 316.097 65.806 317.045 65.4695C318.788 64.7664 320.011 63.6331 320.409 61.9206H320.439C320.623 60.9714 319.919 60.6968 319.523 60.1461C316.159 57.0558 312.887 53.8434 309.525 50.7833L300.995 42.7966L297.816 39.8286C297.419 39.2778 296.593 39.0953 296.777 38.1461C296.899 37.9017 296.563 37.7795 296.777 37.5954C296.777 36.7383 296.869 35.7892 296.411 35.2083C295.83 34.7496 296.135 33.6481 295.891 32.9132C295.768 32.2101 295.707 31.5054 295.34 30.9864C294.912 30.0991 293.781 29.7627 292.955 29.1802C292.925 28.5373 292.651 28.0787 292.345 27.6819C291.122 26.4883 288.767 26.7327 287.178 27.2232C286.476 27.3755 285.986 28.1104 285.253 27.9866C278.924 22.2346 272.871 16.3287 266.696 10.4847C266.42 10.2705 266.329 9.90383 266.236 9.56735C265.9 8.40394 266.602 7.51671 267.366 6.9358C268.743 6.04856 269.996 7.33418 271.402 7.30244C272.625 7.36434 273.665 6.68979 274.124 5.86445C274.155 5.68034 274.185 5.58987 274.276 5.49781C274.184 5.10102 274.398 4.9169 274.368 4.54868H274.398C274.398 3.93761 274.184 3.47733 274.062 2.92816C273.236 1.42828 271.34 0.510886 269.323 0.388673C267.856 0.144247 266.48 0.572786 265.195 1.00133C262.078 2.28694 260.273 4.70422 259.845 8.00873H259.785C259.723 10.7006 260.395 12.8433 261.833 14.4336C267.734 20.1253 273.757 25.7868 279.657 31.5086C280.023 32.2434 279.26 32.7942 279.26 33.6195H279.23C279.108 34.5385 279.412 35.1496 279.534 35.9447C279.657 36.4653 280.116 36.8939 279.963 37.5049C279.963 38.208 278.862 37.7192 278.832 38.3922C277.823 39.1254 277.059 40.0746 276.05 40.8396C275.47 41.2062 275.194 40.5031 274.736 40.4428C271.128 43.7473 266.94 46.655 262.324 49.2548C262.017 49.3469 261.681 49.6215 261.405 49.3167C261.069 48.6438 261.191 47.6327 261.009 46.8693C260.795 46.136 260.825 45.2488 260.153 44.8504C259.969 44.9726 259.938 45.217 259.908 45.4932C259.908 45.6773 259.786 45.8297 259.726 45.9837C259.206 47.4835 258.38 48.7676 256.821 49.5326C256.576 49.5945 256.331 49.4405 256.239 49.2263C255.964 46.4725 255.566 43.841 254.65 41.5776C253.091 37.4779 250.828 33.8369 247.678 30.8673C247.098 30.0722 246.089 29.5817 245.355 28.8786C245.111 28.512 244.591 28.3882 244.529 27.8374C245.049 27.3168 245.72 26.8883 246.332 26.4597C248.015 24.8392 249.818 23.3393 250.246 20.8601C250.184 20.6459 250.124 20.4316 250.032 20.1872C249.756 19.7904 249.144 19.4841 248.503 19.6364C247.953 19.7586 247.709 20.1253 247.433 20.4935C246.394 22.6965 244.559 24.3488 242.48 25.8169C242.236 25.8788 241.93 26.001 241.716 25.8471C240.767 25.144 240.035 24.2567 239.026 23.6139C238.75 23.1552 238.262 22.8806 237.896 22.4521C236.641 20.83 235.174 19.392 234.044 17.6794L233.891 17.343C231.904 15.0177 230.406 12.264 229.031 9.51021C228.572 8.53092 228.052 7.61353 226.83 7.21514C223.374 6.32791 219.89 7.36751 216.741 8.13253C209.923 10.58 204.114 14.4971 199.834 19.0873C198.336 20.6475 197.053 22.3616 195.92 24.1663C195.308 24.7789 195.126 25.6344 194.606 26.3089C194.331 27.3184 193.749 28.0834 193.505 29.123C193.045 30.0722 192.985 32.1212 193.535 33.0402C197.051 35.9479 200.14 39.1905 202.555 42.8617C202.739 43.0458 202.8 43.4426 203.198 43.2902C203.688 42.9537 204.054 42.4633 204.39 41.9744C205.827 38.6382 207.906 35.732 210.382 33.1307C215.366 27.8374 222.61 22.5441 231.356 21.4125C232.212 21.4426 233.129 21.1681 233.893 21.5045C234.077 21.6887 234.289 21.9013 234.137 22.1775C232.394 22.4521 230.621 22.6664 229.001 23.2473V23.3695C230.499 24.8694 231.966 26.3693 233.557 27.7755L233.953 27.9596C235.482 27.7755 236.92 27.347 238.295 26.7978H238.815C239.06 27.0121 239.366 27.1025 239.427 27.4089C239.335 27.5311 239.305 27.685 239.183 27.7755C237.288 28.8468 235.147 29.4595 232.976 29.888C228.086 30.8054 223.407 32.3355 218.851 33.9576C212.676 36.3431 207.754 39.8635 204.116 44.2393C202.619 46.0456 201.732 48.2168 201.15 50.696H201.12C200.57 54.9179 202.007 58.1319 205.278 59.8144C206.379 60.4254 207.662 60.5476 208.916 60.8238C209.13 61.1285 209.436 61.3746 209.406 61.8333C209.252 61.8936 209.07 61.9856 208.886 61.8936C198.735 59.8747 188.892 56.2035 180.514 50.8166L180.056 50.6627C179.168 51.7039 178.435 50.1738 177.641 49.9294C177.09 49.6532 176.632 48.8882 175.838 49.1945C175.409 49.1025 175.409 48.6739 175.135 48.4914C174.523 47.3899 173.544 46.5947 172.904 45.5234C172.812 44.5441 172.506 43.6267 172.69 42.5553H172.72C172.658 42.1268 172.842 41.5459 172.568 41.2697C172.262 40.9332 171.651 40.9936 171.191 41.0555C168.684 41.4522 167.553 43.3505 167.063 45.4313H167.033L167.001 45.9519H166.971L166.94 46.8391H166.878C166.97 47.0534 166.786 47.1137 166.664 47.2058C163.85 48.3374 160.947 49.5913 158.378 51.0912C154.74 53.4783 150.55 56.1702 149.633 60.454H149.602L149.572 61.0651H149.51C149.54 61.6777 149.784 62.2888 149.602 62.9014C149.572 62.9633 149.633 63.0855 149.51 63.0855C149.632 63.3601 149.326 63.4839 149.478 63.7284C149.448 65.014 151.283 64.9219 151.527 66.0234C152.199 66.6662 153.24 66.1472 153.972 65.9012C158.466 63.2697 163.451 61.4333 168.831 60.7302C169.84 60.6381 171.063 60.5159 172.041 60.8222C172.775 61.5857 173.998 61.984 174.67 62.811C174.64 63.5141 174.456 64.0966 174.274 64.6775C174.274 64.8616 174.152 65.014 174.122 65.1981C174.06 65.4425 174.152 65.6266 174.336 65.7488C181.275 70.0326 189.377 72.4198 197.693 73.9181C203.472 74.9577 209.525 75.264 215.608 75.5703L215.914 75.7243L215.822 75.8766C214.966 76.1512 214.019 76.2131 213.193 76.5195C212.987 81.5461 211.804 91.6342 211.14 93.9372C214.755 99.0543 220.318 102.395 227.056 102.395C231.792 102.395 236.143 100.745 239.565 97.9893L239.543 97.9655Z" stroke="black" stroke-width="0.466342"/>
<path d="M272.408 3.84248C272.56 4.17897 272.56 4.54561 272.56 4.97414C272.285 5.46458 271.551 5.61695 270.941 5.5249C269.534 4.51545 267.333 4.48529 265.866 5.43284C265.5 5.89154 264.826 6.19786 264.704 6.84067C264.612 6.99304 264.459 7.0851 264.49 7.36127C264.428 7.51364 264.306 7.63585 264.306 7.81996C264.122 8.55483 264.092 9.96266 264.612 10.5737C264.796 11.0943 265.254 11.3689 265.468 11.8593C266.569 13.2053 267.913 14.3068 269.23 15.5003L271.859 17.9795C272.501 18.7128 273.296 19.4477 274.06 20.1206C277.087 23.1506 280.327 25.9964 283.354 29.0549C283.538 29.6675 282.498 29.6056 282.1 29.912C281.856 30.0643 281.58 30.1865 281.306 30.1262C280.541 29.6374 279.961 28.9644 279.319 28.3819C274.122 23.2712 268.679 18.4065 263.451 13.3576C262.32 12.3482 261.832 10.9102 261.618 9.25795L261.586 8.06439H261.618L261.648 7.57395H261.678C262.26 5.09477 263.665 3.04572 266.448 2.31085C268.617 1.91564 271.093 2.37434 272.408 3.84248Z" fill="white"/>
<path d="M220.1 10.1149C221.719 14.002 224.104 17.3668 226.611 20.6411C226.733 20.7332 226.641 20.9776 226.673 21.1617C224.99 21.8045 223.217 22.3855 221.566 23.1505C218.907 24.4059 216.676 25.9042 214.443 27.4644C213.556 27.4343 213.434 26.547 212.914 26.0868C210.591 23.2409 207.9 20.6094 205.272 17.9794C205.24 17.7652 205.18 17.6731 205.18 17.4287C206.769 15.6844 209.064 14.4607 211.203 13.1147C213.68 11.7069 216.37 10.453 219.213 9.688C219.67 9.5642 219.946 9.81021 220.1 10.1149Z" fill="white"/>
<path d="M291.547 29.2087C291.883 29.6055 291.823 30.3404 292.037 30.7991C292.557 31.0737 293.322 30.9832 293.78 31.4101C294.422 31.9307 294.483 32.7878 294.636 33.6449C294.422 33.829 294.759 33.9195 294.636 34.1655V34.7163H294.605C294.513 34.8686 294.636 35.113 294.483 35.2051C294.911 35.8479 295.187 36.5526 295.065 37.5621H295.033C294.849 39.5206 293.504 40.5904 291.793 41.4475C291.397 41.4475 290.967 41.7538 290.662 41.4475C290.754 41.0507 291.059 40.7745 291.244 40.4682C291.825 39.6111 292.223 38.5414 292.467 37.378C292.435 37.2557 292.435 37.1335 292.283 37.0716C291.427 37.5922 291.152 38.5715 290.478 39.2445C289.836 39.8873 289.286 40.6222 288.277 40.9888C287.819 41.0809 287.391 40.8967 287.177 40.6222C286.993 40.346 287.025 40.0095 287.025 39.6429C287.727 38.8477 288.644 38.1446 289.104 37.1335C289.408 36.8272 289.592 36.4304 289.684 35.94C290.05 35.6035 290.112 35.0829 290.172 34.5321C290.142 34.4401 290.02 34.2877 289.898 34.3798C288.889 35.4495 288.063 36.5828 286.718 37.3478C286.444 37.4097 286.106 37.3795 285.954 37.1637C285.832 36.8272 285.618 36.3368 285.74 35.9701V35.6336C285.8 35.4813 285.922 35.3273 285.922 35.1432C286.044 34.6226 286.412 34.2861 286.595 33.8274C286.473 33.5513 286.779 33.6132 286.839 33.4909C287.572 32.6339 288.52 31.9609 288.796 30.7673H288.858C288.92 30.1245 288.644 29.5738 288.368 29.0849C288.306 28.504 289.102 28.6262 289.468 28.412C290.355 28.139 291.149 28.658 291.547 29.2087Z" fill="white"/>
<path d="M196.864 29.239C199.891 31.7182 202.367 34.5624 204.66 37.5622C204.722 37.7145 204.752 37.8367 204.722 38.0209C204.66 38.205 204.478 38.3875 204.448 38.6018C204.203 38.9081 204.05 39.3049 203.805 39.5811C203.409 39.735 203.255 39.3366 203.041 39.1843C200.962 36.4607 198.486 33.9831 195.917 31.6261C195.643 31.4721 195.795 31.0134 195.764 30.7071H195.795C195.857 30.1564 196.101 29.85 196.254 29.3914C196.344 29.239 196.648 29.0565 196.864 29.239Z" fill="white"/>
<path d="M243.395 29.8834C243.731 30.1278 244.128 30.3421 244.19 30.8008C243.517 31.2595 242.355 31.4436 242.601 32.5752C242.723 32.7895 242.937 32.9419 243.213 33.0339C243.671 33.0657 243.945 32.6673 244.343 32.5133C246.759 32.1149 247.859 34.1656 248.899 35.4512C249.938 37.0431 251.009 38.5414 251.681 40.408C252.077 41.0809 252.323 41.846 252.567 42.6427C252.996 43.3458 253.088 44.3251 253.332 45.1521C253.454 45.979 253.636 46.7742 253.728 47.6614C253.606 48.5486 254.064 49.0692 253.912 50.0168C253.698 50.5374 252.994 50.231 252.506 50.2612C250.488 49.8327 248.562 49.1597 246.299 49.3438C245.718 48.9454 245.779 48.1502 245.382 47.6598C244.832 46.8329 244.221 45.9758 243.059 45.5489C242.386 45.5171 241.712 45.7314 241.072 45.9155C241.042 46.0076 240.98 46.2218 241.104 46.252C242.172 47.1392 243.427 47.9042 243.335 49.6184C243.243 49.6184 243.243 49.7105 243.243 49.7708C243.181 50.658 241.958 50.7802 241.378 51.3008C241.316 51.7611 241.5 52.0658 241.684 52.342C242.54 53.2292 243.733 52.4039 244.619 52.0976C245.964 50.4755 248.991 50.8421 250.886 51.4548C253.698 52.7705 257.184 51.7912 259.233 49.985C259.447 49.8025 259.507 50.1072 259.539 50.2295V50.5961H259.507C259.569 51.0865 259.233 51.2389 259.263 51.6674C259.201 51.8516 259.079 52.0039 259.079 52.188C257.794 55.5227 255.135 58.2765 250.885 59.0415C248.928 59.2859 246.971 59.0113 245.352 58.1241C245.016 58.0622 245.046 58.3384 244.892 58.4907C243.701 61.0921 241.652 63.1412 238.809 64.5792C235.263 66.2314 229.852 65.9251 227.131 63.3237C227.069 63.1094 227.223 63.0491 227.283 62.9269C230.065 63.3555 232.572 61.7953 233.642 59.897C234.315 58.9177 234.743 57.7543 235.567 56.8671C236.79 55.6433 238.259 54.3577 240.246 53.8387C240.52 53.6848 240.642 53.4721 240.642 53.1038C240.52 52.7975 240.398 52.5229 240.031 52.4007C237.066 52.2468 235.139 54.3593 233.672 56.0116C233.306 56.5322 232.97 57.0512 232.664 57.6321V57.786C232.602 57.9701 232.42 58.1225 232.389 58.3368C232.267 58.3971 232.297 58.5193 232.237 58.6415C231.747 59.8652 230.524 60.7223 229.058 61.089C226.734 61.5175 224.411 60.2017 223.279 58.7336C222.943 58.4273 222.943 57.7543 222.331 57.7844C222.269 58.978 222.851 59.8351 223.217 60.8144C224.684 64.5474 228.966 67.2694 233.856 67.4234C236.455 67.4853 238.809 66.8425 240.858 65.6489C242.477 64.9141 243.669 63.8427 244.71 62.6492C245.472 62.1603 246.543 63.0475 246.941 62.0682C247.337 61.7318 247.429 61.089 248.041 60.8747C249.234 60.9064 250.519 60.9064 251.679 60.7525C251.893 60.8144 251.924 60.9969 251.893 61.2429H251.862C249.447 66.6282 243.209 71.0644 235.72 70.6375C229.054 70.4533 223.306 66.7822 219.516 62.865C219.18 62.4984 219.18 61.8857 218.996 61.3969C218.475 60.8461 218.293 61.7334 217.865 61.8556C216.428 62.8047 213.983 62.7126 212.546 61.6715C211.323 60.662 210.163 59.4986 210.559 57.5099C210.651 57.5416 210.621 57.448 210.621 57.3877C210.895 56.4084 211.783 55.7671 212.914 55.4608C213.25 55.3989 213.708 55.3084 213.832 55.0021C213.832 54.4514 213.342 54.2069 212.884 54.0228C212.119 53.5641 210.897 54.6958 210.805 53.4721C210.683 53.1356 210.621 52.7372 210.591 52.2785L210.559 51.4833H210.591L210.621 50.9929H210.651C210.895 50.0136 211.141 49.0661 211.537 48.2391C212.272 46.8932 213.158 45.6377 214.137 44.4442C215.91 42.5173 218.049 40.8032 220.344 39.2128C222.331 37.7748 224.838 36.6114 227.191 35.602C224.806 35.5401 222.819 36.7035 220.772 37.5606C214.749 40.5588 209.856 44.322 207.289 49.7692C206.342 51.4214 206.036 54.664 207.259 56.3179L207.871 57.2051C207.993 57.3289 207.933 57.6035 207.933 57.8178C207.352 58.1844 206.679 57.6337 206.16 57.3591C204.111 56.1036 203.439 53.5038 203.959 50.8421C204.967 47.0789 207.444 44.3553 210.348 41.938C214.322 38.5113 219.917 35.7575 225.482 34.1354C230.068 32.3911 235.203 32.0245 239.759 30.158C240.645 29.9437 241.348 29.1787 242.328 29.239L243.395 29.8834Z" fill="white"/>
<path d="M216.582 31.1673C216.948 31.8403 217.346 32.4831 217.622 33.2179L217.53 33.4322C213.678 34.9622 210.377 37.1034 207.411 39.3381H207.351C207.351 39.0016 207.656 38.8175 207.779 38.5429C209.828 35.3305 212.518 32.6069 215.637 30.1277C216.154 30.3102 216.278 30.8308 216.582 31.1673Z" fill="black"/>
<path d="M287.053 30.4945C287.115 30.8929 286.901 31.1373 286.717 31.3818C286.166 31.9627 285.524 32.4531 284.974 33.0658V33.2499C284.912 33.4324 284.882 33.6467 284.73 33.7705C283.903 34.9021 283.873 37.167 284.608 38.4209C284.912 38.8177 284.974 39.4002 285.34 39.7668C285.462 41.1144 286.289 42.0619 287.694 42.4285C288.122 42.8269 288.55 43.2237 288.978 43.6221C288.978 43.8983 288.734 43.9586 288.55 44.1126C287.571 44.449 286.867 45.0918 286.287 45.7648C286.043 45.887 285.737 46.1616 285.461 45.9489C284.3 44.603 283.474 43.0412 282.311 41.6953C281.945 41.0826 281.485 40.6239 281.15 40.0113V39.8589C281.303 39.7049 281.334 39.4304 281.517 39.278C281.823 38.7574 282.037 38.1765 281.945 37.3496C281.425 36.5226 280.814 35.8497 280.905 34.5656L280.875 33.9228H280.905C281.211 32.6674 282.067 31.9341 283.076 31.1992C284.144 30.4342 285.583 30.4342 286.928 30.3723L287.053 30.4945Z" fill="white"/>
<path d="M229.086 37.3478C229.239 37.4097 229.086 37.6541 229.239 37.7144C229.209 38.0207 229.025 38.2048 228.872 38.4175C228.108 38.2334 226.917 37.989 226.335 38.6318C225.509 39.3666 224.898 40.2539 224.654 41.3855C224.562 41.3855 224.622 41.5078 224.592 41.5697C224.622 42.0284 224.256 42.3029 224.438 42.7315C224.47 42.8235 224.377 43.0061 224.53 43.0378C224.346 43.068 224.561 43.4044 224.286 43.2822C223.98 42.9457 223.858 42.5172 223.89 41.9665C223.798 41.6919 223.92 41.2633 223.768 40.9872C223.92 40.8046 223.829 40.4666 223.86 40.2221H223.891C224.044 38.9064 224.748 38.0493 225.572 37.224C226.489 36.5224 228.446 36.278 229.086 37.3478Z" fill="black"/>
<path d="M248.744 39.0002C248.988 39.2145 248.866 39.6732 248.898 40.0414C248.622 40.408 248.316 40.7445 247.828 40.9286C247.368 41.0207 246.879 40.9588 246.573 40.7144C246.297 40.3477 245.961 40.0414 245.993 39.4589H246.025C246.055 38.9383 246.361 38.6637 246.727 38.3891C247.033 38.2352 247.461 38.0828 247.828 38.2352C248.226 38.3891 248.532 38.7256 248.744 39.0002Z" fill="black"/>
<path d="M296.286 41.0509C301.176 45.4267 305.854 49.9851 310.717 54.3911C313.01 56.7164 315.577 58.8892 317.87 61.2144C317.992 61.5509 318.482 61.643 318.298 62.2239C318.022 62.6826 317.748 63.2032 317.136 63.4174C316.586 63.4174 316.28 63.0191 315.975 62.7445C313.926 60.8478 312.031 58.9495 310.014 56.9608C308.119 55.2768 306.314 53.5944 304.511 51.8802C301.178 48.8519 297.908 45.7616 294.666 42.6698C294.178 42.1809 294.973 41.9667 295.095 41.5984C295.491 41.4175 295.643 40.7144 296.286 41.0509Z" fill="white"/>
<path d="M279.776 42.1221C280.694 43.4077 281.641 44.6616 282.557 45.9472C282.893 46.0694 282.893 46.3758 282.985 46.6504C283.26 47.263 283.872 47.6296 283.842 48.455C283.506 48.9153 283.109 49.374 282.557 49.7104C281.641 49.8326 281.549 48.8534 281.09 48.455C279.836 46.5281 278.431 44.7521 277.086 42.9475C276.964 42.8252 277.054 42.5808 277.024 42.3967C277.513 41.9682 277.973 41.4777 278.583 41.1111C279.257 41.1127 279.471 41.7237 279.776 42.1221Z" fill="white"/>
<path d="M170.845 43.6823C170.877 43.7442 170.815 43.8347 170.877 43.8665C171.029 45.06 171.335 46.0996 171.671 47.2027C172.558 48.6105 173.567 49.9565 174.179 51.5786C174.24 51.8532 174.393 52.0674 174.423 52.3436C174.331 52.3436 174.361 52.4357 174.361 52.496C173.628 54.3022 172.864 56.0449 172.222 57.8813L171.855 58.1257C166.537 58.2178 161.889 59.9621 157.394 62.0111C155.866 62.7142 154.583 63.6015 153.114 64.3665C152.502 64.3062 152.106 63.8459 151.585 63.5713C151.432 63.419 151.341 63.2047 151.341 62.9285C151.097 61.8572 151.311 60.6033 151.463 59.5621C151.708 59.378 151.769 59.0114 151.953 58.7352C153.328 57.1131 155.193 55.7973 157.028 54.4514C159.687 52.5848 162.929 50.8723 166.23 49.7692C166.567 49.7692 166.659 50.0136 166.721 50.2596C166.659 50.5342 166.812 50.6263 166.812 50.8723C167.119 51.9738 167.607 52.8912 168.341 53.6562C168.463 53.8705 168.769 53.8705 168.983 53.8086C169.228 53.6562 169.258 53.38 169.258 53.0435C169.104 53.0118 169.226 52.8293 169.136 52.7372C168.493 51.5135 168.433 49.3407 168.861 47.9646C168.708 46.2203 169.106 44.66 170.176 43.6808C170.295 43.53 170.815 43.376 170.845 43.6823Z" fill="white"/>
<path d="M232.48 46.1313L232.542 46.9582C232.419 47.0503 232.419 47.1424 232.389 47.2947C232.145 47.6614 231.809 47.9978 231.289 48.1216C230.494 48.2756 229.882 47.8153 229.364 47.4487C229.242 46.9884 228.935 46.7138 229.058 46.1329C229.15 45.9488 229.211 45.7964 229.272 45.6123C229.546 45.1838 230.098 44.9076 230.708 44.8774C231.593 44.8759 232.266 45.4568 232.48 46.1313Z" fill="black"/>
<path d="M216.368 48.609C215.542 49.3121 214.411 49.7708 213.524 50.4136C212.974 50.5358 212.944 50.0168 212.698 49.8026V49.6486C213.555 49.0058 214.533 48.3328 215.634 47.9043C216.033 47.9964 216.216 48.3646 216.368 48.609Z" fill="black"/>
<path d="M217.438 50.6293C216.154 51.2102 215.023 52.0371 213.831 52.6799C213.525 52.4958 213.25 52.2514 213.188 51.8848C214.075 50.9674 215.42 50.3547 216.612 49.7437C217.102 49.8325 217.346 50.2008 217.438 50.6293Z" fill="black"/>
<path d="M178.429 53.199V53.5355H178.397C177.297 55.7084 176.41 58.0034 175.555 60.3588C175.005 60.6651 174.545 60.1144 174.179 59.9001C173.935 59.7478 174.057 59.3494 174.027 59.0732C174.088 58.9208 174.211 58.7669 174.211 58.6145C175.037 56.4718 175.831 54.391 176.81 52.4023C177.39 52.0039 177.91 52.7388 178.369 52.953L178.429 53.199Z" fill="white"/>
<path d="M159.718 54.7591C159.81 54.9433 159.779 55.1559 159.779 55.3718C158.863 56.1051 157.731 56.7177 156.784 57.4224C155.347 58.4938 153.94 59.6556 152.442 60.6651C154.247 58.3398 156.722 56.4416 159.169 54.5449C159.381 54.2703 159.626 54.6052 159.718 54.7591Z" fill="black"/>
<path d="M160.788 57.7574C161.124 58.6446 160.146 58.6446 159.718 58.9811C157.517 59.9604 155.713 61.1841 153.665 62.2555V62.0111C155.56 60.2064 157.761 58.6446 160.3 57.2987C160.634 57.2067 160.696 57.5749 160.788 57.7574Z" fill="black"/>
<path d="M221.016 89.0598H220.986C220.894 89.5804 221.138 89.8248 221.26 90.1914C222.483 91.385 223.645 92.6087 225.143 93.6182C225.449 93.7705 225.785 94.0769 226.243 94.0467C228.26 93.1595 230.247 92.1183 232.144 91.0787H232.54C234.191 92.3341 235.568 93.8023 237.431 94.9339C237.645 95.0863 237.981 95.0863 238.165 94.9339C239.572 92.915 240.856 90.8025 242.017 88.6297C243.058 86.6108 244.28 84.6823 245.135 82.5412C245.289 82.4492 245.319 82.2349 245.379 82.0825C245.593 81.4699 245.929 81.0112 246.144 80.3684H246.175C246.267 80.1541 246.267 79.8478 246.45 79.6954C246.94 78.3495 247.488 77.0639 247.916 75.6576C248.681 73.6689 249.201 71.4659 249.721 69.293H249.751C249.721 68.9565 249.873 68.2534 249.355 68.4978C246.878 70.2723 243.942 72.0166 240.611 72.5372C234.19 73.699 227.892 72.0468 223.032 68.7724H222.757C222.391 68.9248 222.478 69.4152 222.543 69.966C222.957 75.4592 223.186 79.2081 221.016 89.0598Z" fill="white"/>
<path d="M234.256 81.038C233.919 82.0279 234.196 83.0178 234.874 83.249C235.552 83.4802 236.375 82.8651 236.712 81.8752C237.049 80.8853 236.772 79.8954 236.094 79.6642C235.416 79.433 234.593 80.0481 234.256 81.038Z" fill="black"/>
<path d="M232.04 86.0985C231.703 87.0885 231.98 88.0784 232.658 88.3094C233.337 88.5405 234.159 87.9252 234.496 86.9352C234.833 85.9451 234.556 84.9553 233.877 84.7243C233.199 84.4932 232.376 85.1085 232.04 86.0985Z" fill="black"/>
<path d="M229.683 73.0118L228.536 80.0494L237.25 76.1481L243.289 80.2017L246.345 71.8643L244.282 72.7816L242.599 77.3718L237.479 74.1593L231.059 76.9893L231.365 73.6229L229.683 73.0118Z" fill="black"/>
<path d="M189.02 112.993C189.143 112.646 189.632 112.646 189.755 112.993L190.827 116.036C190.88 116.186 191.018 116.288 191.176 116.296L194.277 116.439C194.631 116.456 194.781 116.899 194.51 117.127L192.047 119.206C191.932 119.303 191.883 119.458 191.921 119.603L192.755 122.794C192.846 123.145 192.451 123.421 192.155 123.212L189.611 121.426C189.477 121.332 189.298 121.332 189.164 121.426L186.62 123.212C186.324 123.421 185.928 123.145 186.02 122.794L186.854 119.603C186.892 119.458 186.843 119.303 186.728 119.206L184.265 117.127C183.994 116.899 184.144 116.456 184.498 116.439L187.599 116.296C187.757 116.288 187.895 116.186 187.948 116.036L189.02 112.993Z" fill="#E62024"/>
<path d="M207.58 112.928C207.706 112.59 208.184 112.59 208.31 112.928L209.472 116.042C209.526 116.188 209.663 116.288 209.819 116.295L213.134 116.44C213.494 116.456 213.641 116.91 213.359 117.135L210.763 119.204C210.641 119.302 210.588 119.463 210.63 119.614L211.517 122.817C211.613 123.165 211.227 123.446 210.926 123.246L208.16 121.412C208.03 121.326 207.86 121.326 207.73 121.412L204.964 123.246C204.663 123.446 204.277 123.165 204.373 122.817L205.26 119.614C205.302 119.463 205.249 119.302 205.127 119.204L202.531 117.135C202.249 116.91 202.396 116.456 202.756 116.44L206.071 116.295C206.227 116.288 206.364 116.188 206.418 116.042L207.58 112.928Z" fill="#E62024"/>
<path d="M226.135 112.993C226.258 112.646 226.747 112.646 226.87 112.993L227.942 116.036C227.995 116.186 228.133 116.288 228.291 116.296L231.392 116.439C231.746 116.456 231.896 116.899 231.625 117.127L229.162 119.206C229.047 119.303 228.998 119.458 229.036 119.603L229.87 122.794C229.962 123.145 229.566 123.421 229.27 123.212L226.726 121.426C226.592 121.332 226.413 121.332 226.279 121.426L223.736 123.212C223.439 123.421 223.044 123.145 223.135 122.794L223.969 119.603C224.007 119.458 223.958 119.303 223.843 119.206L221.38 117.127C221.109 116.899 221.259 116.456 221.613 116.439L224.714 116.296C224.872 116.288 225.01 116.186 225.063 116.036L226.135 112.993Z" fill="#E62024"/>
<path d="M244.695 112.928C244.822 112.59 245.299 112.59 245.425 112.928L246.587 116.042C246.641 116.188 246.778 116.288 246.934 116.295L250.249 116.44C250.609 116.456 250.756 116.91 250.474 117.135L247.878 119.204C247.756 119.302 247.703 119.463 247.745 119.614L248.632 122.817C248.728 123.165 248.342 123.446 248.042 123.246L245.275 121.412C245.145 121.326 244.975 121.326 244.845 121.412L242.079 123.246C241.778 123.446 241.392 123.165 241.488 122.817L242.375 119.614C242.417 119.463 242.364 119.302 242.242 119.204L239.646 117.135C239.364 116.91 239.511 116.456 239.871 116.44L243.186 116.295C243.342 116.288 243.479 116.188 243.533 116.042L244.695 112.928Z" fill="#E62024"/>
<path d="M263.25 112.993C263.373 112.646 263.862 112.646 263.985 112.993L265.057 116.036C265.11 116.186 265.248 116.288 265.407 116.296L268.507 116.439C268.861 116.456 269.011 116.899 268.74 117.127L266.277 119.206C266.162 119.303 266.113 119.458 266.151 119.603L266.985 122.794C267.077 123.145 266.682 123.421 266.385 123.212L263.841 121.426C263.707 121.332 263.528 121.332 263.394 121.426L260.851 123.212C260.554 123.421 260.159 123.145 260.25 122.794L261.084 119.603C261.122 119.458 261.073 119.303 260.959 119.206L258.495 117.127C258.224 116.899 258.374 116.456 258.728 116.439L261.829 116.296C261.987 116.288 262.125 116.186 262.178 116.036L263.25 112.993Z" fill="#E62024"/>
</g>
<defs>
<clipPath id="clip0_20_565">
<rect width="454" height="142" fill="white"/>
</clipPath>
</defs>
</svg>
