<svg width="241" height="96" viewBox="0 0 241 96" fill="none" xmlns="http://www.w3.org/2000/svg">
<path d="M2.81547 45.1759L90.5465 -42.8241C91.297 -43.5769 92.3163 -44 93.3793 -44H580C582.209 -44 584 -42.2091 584 -40V136C584 138.209 582.209 140 580 140H93.3793C92.3163 140 91.297 139.577 90.5465 138.824L2.81547 50.8241C1.25913 49.263 1.25914 46.737 2.81547 45.1759Z" fill="#E3E3E3"/>
<path d="M52.8155 45.1759L140.547 -42.8241C141.297 -43.5769 142.316 -44 143.379 -44H630C632.209 -44 634 -42.2091 634 -40V136C634 138.209 632.209 140 630 140H143.379C142.316 140 141.297 139.577 140.547 138.824L52.8155 50.8241C51.2591 49.263 51.2591 46.737 52.8155 45.1759Z" fill="#D71B34"/>
</svg>
